<?xml version="1.0" encoding="UTF-8"?>
<svg xmlns="http://www.w3.org/2000/svg" xmlns:xlink="http://www.w3.org/1999/xlink" width="250px" height="101px" viewBox="0 0 249 101" version="1.1">
<g id="surface1">
<path style=" stroke:none;fill-rule:nonzero;fill:rgb(0%,0%,0%);fill-opacity:1;" d="M 31.71875 25.886719 C 31.71875 29.230469 31.675781 29.230469 24.316406 29.230469 L 17.761719 29.230469 L 17.761719 36.644531 C 17.761719 40.714844 17.886719 44.058594 18.015625 44.058594 C 18.140625 44.058594 18.605469 43.847656 19.074219 43.636719 C 19.792969 43.214844 19.875 42.703125 19.875 37.707031 C 19.875 34.738281 20.003906 31.984375 20.128906 31.605469 C 20.339844 31.011719 21.3125 30.925781 26.429688 30.925781 C 29.773438 30.925781 32.773438 30.800781 33.15625 30.671875 C 33.703125 30.460938 33.832031 29.742188 33.832031 27.285156 C 33.832031 24.234375 33.789062 24.148438 32.773438 24.148438 C 31.800781 24.148438 31.71875 24.316406 31.71875 25.886719 Z M 31.71875 25.886719 "/>
<path style=" stroke:none;fill-rule:nonzero;fill:rgb(0%,0%,0%);fill-opacity:1;" d="M 68.59375 47.324219 L 68.71875 70.539062 L 70.835938 70.539062 L 70.960938 47.324219 L 71.046875 24.148438 L 68.507812 24.148438 Z M 68.59375 47.324219 "/>
<path style=" stroke:none;fill-rule:nonzero;fill:rgb(0%,0%,0%);fill-opacity:1;" d="M 85.425781 47.449219 L 85.425781 70.75 L 87.960938 70.75 L 87.960938 24.148438 L 85.425781 24.148438 Z M 85.425781 47.449219 "/>
<path style=" stroke:none;fill-rule:nonzero;fill:rgb(0%,0%,0%);fill-opacity:1;" d="M 102.761719 48.382812 C 102.722656 72.488281 102.722656 72.65625 101.789062 74.945312 C 101.199219 76.386719 100.269531 77.699219 99.253906 78.546875 C 97.644531 79.859375 97.519531 79.859375 91.851562 80.070312 L 86.058594 80.28125 L 87.242188 81.089844 C 88.257812 81.765625 89.144531 81.894531 93.796875 81.808594 C 99.761719 81.722656 101.28125 81.257812 102.976562 79.054688 C 103.523438 78.335938 104.199219 76.851562 104.414062 75.835938 C 104.707031 74.648438 104.878906 64.609375 104.878906 49.015625 L 104.878906 24.148438 L 102.761719 24.148438 Z M 102.761719 48.382812 "/>
<path style=" stroke:none;fill-rule:nonzero;fill:rgb(0%,0%,0%);fill-opacity:1;" d="M 135.664062 52.109375 L 135.792969 80.027344 L 133.761719 80.15625 C 132.28125 80.242188 131.6875 80.453125 131.605469 81.003906 C 131.476562 81.597656 131.984375 81.722656 134.859375 81.851562 L 138.285156 81.976562 L 138.285156 55.5 C 138.285156 39.273438 138.117188 28.425781 137.863281 27.496094 C 137.609375 26.691406 137.019531 25.589844 136.511719 25.082031 L 135.539062 24.191406 Z M 135.664062 52.109375 "/>
<path style=" stroke:none;fill-rule:nonzero;fill:rgb(0%,0%,0%);fill-opacity:1;" d="M 168.945312 27.453125 L 168.945312 30.714844 L 166.957031 31.691406 C 165.097656 32.535156 164.929688 32.792969 164.929688 34.105469 C 164.929688 34.910156 165.011719 35.585938 165.140625 35.585938 C 165.226562 35.585938 166.746094 34.867188 168.523438 34.019531 C 171.695312 32.453125 171.695312 32.453125 171.695312 30.714844 C 171.695312 28.300781 171.019531 26.140625 169.875 25.082031 L 168.902344 24.148438 Z M 168.945312 27.453125 "/>
<path style=" stroke:none;fill-rule:nonzero;fill:rgb(0%,0%,0%);fill-opacity:1;" d="M 202.566406 26.691406 L 202.566406 29.230469 L 192.839844 29.230469 L 192.839844 80.070312 L 190.9375 80.070312 C 189.328125 80.070312 189.035156 80.199219 189.035156 80.875 C 189.035156 81.597656 189.414062 81.722656 192.207031 81.851562 L 195.378906 81.976562 L 195.378906 30.96875 L 200.15625 30.84375 L 204.890625 30.714844 L 205.019531 27.410156 L 205.144531 24.148438 L 202.566406 24.148438 Z M 202.566406 26.691406 "/>
<path style=" stroke:none;fill-rule:nonzero;fill:rgb(0%,0%,0%);fill-opacity:1;" d="M 230.394531 26.5625 L 230.265625 29.019531 L 223.625 29.148438 L 216.945312 29.273438 L 216.945312 36.644531 C 216.945312 40.714844 217.113281 44.058594 217.28125 44.058594 C 217.496094 44.058594 217.960938 43.804688 218.339844 43.507812 C 218.933594 43.085938 219.058594 42.027344 219.144531 37.070312 L 219.269531 31.140625 L 225.570312 31.011719 C 229.378906 30.96875 232.125 30.714844 232.464844 30.417969 C 232.804688 30.121094 233.015625 28.976562 233.015625 27.070312 L 233.015625 24.148438 L 231.746094 24.148438 C 230.5625 24.148438 230.519531 24.191406 230.394531 26.5625 Z M 230.394531 26.5625 "/>
<path style=" stroke:none;fill-rule:nonzero;fill:rgb(0%,0%,0%);fill-opacity:1;" d="M 118.832031 37.664062 C 118.832031 42.746094 119.003906 46.222656 119.257812 46.390625 C 119.46875 46.519531 120.058594 46.433594 120.523438 46.179688 C 121.328125 45.753906 121.371094 45.332031 121.371094 38.339844 L 121.371094 30.925781 L 123.484375 30.925781 C 125.304688 30.925781 125.597656 30.800781 125.597656 30.078125 C 125.597656 29.316406 125.304688 29.230469 122.214844 29.230469 L 118.832031 29.230469 Z M 118.832031 37.664062 "/>
<path style=" stroke:none;fill-rule:nonzero;fill:rgb(0%,0%,0%);fill-opacity:1;" d="M 152.242188 36.433594 C 152.242188 40.542969 152.410156 43.636719 152.621094 43.636719 C 154.230469 43.636719 154.355469 43.214844 154.355469 37.707031 C 154.355469 34.699219 154.484375 31.984375 154.609375 31.605469 C 154.777344 31.097656 155.457031 30.925781 156.9375 30.925781 C 158.710938 30.925781 159.007812 30.800781 159.007812 30.078125 C 159.007812 29.316406 158.710938 29.230469 155.625 29.230469 L 152.242188 29.230469 Z M 152.242188 36.433594 "/>
<path style=" stroke:none;fill-rule:nonzero;fill:rgb(0%,0%,0%);fill-opacity:1;" d="M 179.390625 29.953125 C 179.476562 30.503906 179.984375 30.757812 181.125 30.84375 C 182.480469 30.96875 182.691406 30.84375 182.691406 30.121094 C 182.691406 29.359375 182.4375 29.230469 180.957031 29.230469 C 179.5625 29.230469 179.265625 29.359375 179.390625 29.953125 Z M 179.390625 29.953125 "/>
<path style=" stroke:none;fill-rule:nonzero;fill:rgb(0%,0%,0%);fill-opacity:1;" d="M 170.425781 42.578125 L 169.367188 43.128906 L 169.15625 58.972656 L 168.945312 74.777344 L 167.929688 76.257812 C 167.382812 77.0625 166.324219 78.207031 165.605469 78.800781 C 164.378906 79.816406 164.039062 79.859375 156.765625 80.070312 C 149.367188 80.28125 149.195312 80.28125 150.042969 81.046875 C 150.804688 81.765625 151.691406 81.808594 158.417969 81.765625 C 166.957031 81.722656 168.058594 81.425781 170.046875 78.671875 C 170.679688 77.785156 171.355469 76.257812 171.484375 75.285156 C 171.609375 74.308594 171.695312 66.429688 171.609375 57.746094 L 171.484375 42.027344 Z M 170.425781 42.578125 "/>
<path style=" stroke:none;fill-rule:nonzero;fill:rgb(0%,0%,0%);fill-opacity:1;" d="M 32.476562 44.527344 C 31.972656 44.824219 31.71875 45.457031 31.71875 46.558594 C 31.71875 47.578125 31.464844 48.425781 31 48.761719 C 30.617188 49.101562 27.53125 50.796875 24.148438 52.574219 L 17.972656 55.796875 L 17.972656 63.167969 C 17.972656 70.496094 17.972656 70.539062 18.945312 70.667969 C 19.875 70.792969 19.875 70.792969 19.875 64.734375 C 19.875 60.5 20.046875 58.421875 20.382812 57.957031 C 20.679688 57.574219 23.597656 55.921875 26.855469 54.226562 C 30.109375 52.535156 33.027344 50.882812 33.324219 50.5 C 33.875 49.78125 34.042969 44.058594 33.535156 44.058594 C 33.324219 44.058594 32.859375 44.273438 32.476562 44.527344 Z M 32.476562 44.527344 "/>
<path style=" stroke:none;fill-rule:nonzero;fill:rgb(0%,0%,0%);fill-opacity:1;" d="M 231.449219 44.695312 C 230.816406 45.160156 230.476562 45.882812 230.394531 47.152344 L 230.265625 48.933594 L 223.710938 52.363281 L 217.15625 55.796875 L 217.027344 63.253906 L 216.945312 70.75 L 219.058594 70.75 L 219.058594 64.4375 C 219.058594 59.863281 219.1875 58.042969 219.609375 57.703125 C 219.90625 57.449219 222.78125 55.878906 226.035156 54.1875 C 229.292969 52.535156 232.210938 50.839844 232.507812 50.5 C 233.058594 49.78125 233.226562 44.058594 232.675781 44.058594 C 232.507812 44.058594 231.957031 44.355469 231.449219 44.695312 Z M 231.449219 44.695312 "/>
<path style=" stroke:none;fill-rule:nonzero;fill:rgb(0%,0%,0%);fill-opacity:1;" d="M 153.214844 55.203125 C 148.183594 57.746094 148.011719 57.871094 148.011719 59.183594 C 148.011719 59.949219 148.140625 60.582031 148.351562 60.582031 C 148.519531 60.625 150.972656 59.398438 153.804688 57.957031 C 158.839844 55.371094 159.007812 55.246094 159.007812 53.890625 C 159.007812 53.167969 158.882812 52.535156 158.710938 52.535156 C 158.5 52.574219 156.046875 53.761719 153.214844 55.203125 Z M 153.214844 55.203125 "/>
<path style=" stroke:none;fill-rule:nonzero;fill:rgb(0%,0%,0%);fill-opacity:1;" d="M 52.988281 53.464844 C 52.480469 53.71875 52.015625 54.1875 51.929688 54.480469 C 51.847656 54.777344 49.816406 56.050781 47.363281 57.277344 C 43.21875 59.398438 42.921875 59.609375 42.796875 60.921875 C 42.710938 61.640625 42.839844 62.277344 43.09375 62.277344 C 43.304688 62.277344 46.011719 61.007812 49.011719 59.480469 L 54.554688 56.683594 L 54.554688 54.820312 C 54.554688 52.832031 54.46875 52.746094 52.988281 53.464844 Z M 52.988281 53.464844 "/>
<path style=" stroke:none;fill-rule:nonzero;fill:rgb(0%,0%,0%);fill-opacity:1;" d="M 122.429688 56.601562 C 120.820312 57.449219 119.339844 58.335938 119.171875 58.59375 C 119.003906 58.886719 118.832031 63.804688 118.832031 69.566406 L 118.832031 80.027344 L 116.84375 80.15625 C 115.367188 80.242188 114.773438 80.453125 114.6875 81.003906 C 114.5625 81.597656 115.027344 81.722656 117.777344 81.851562 C 119.550781 81.933594 121.117188 81.894531 121.203125 81.808594 C 121.285156 81.722656 121.371094 76.808594 121.371094 70.921875 L 121.371094 60.160156 L 123.484375 59.101562 C 125.429688 58.125 125.597656 57.914062 125.597656 56.558594 C 125.597656 55.753906 125.558594 55.074219 125.515625 55.074219 C 125.429688 55.074219 124.078125 55.753906 122.429688 56.601562 Z M 122.429688 56.601562 "/>
<path style=" stroke:none;fill-rule:nonzero;fill:rgb(0%,0%,0%);fill-opacity:1;" d="M 153.171875 67.871094 C 151.859375 68.503906 152.03125 70.496094 153.425781 70.667969 C 154.273438 70.792969 154.355469 70.625 154.355469 69.097656 C 154.355469 68.125 154.3125 67.363281 154.273438 67.402344 C 154.1875 67.402344 153.722656 67.617188 153.171875 67.871094 Z M 153.171875 67.871094 "/>
<path style=" stroke:none;fill-rule:nonzero;fill:rgb(0%,0%,0%);fill-opacity:1;" d="M 31.71875 77.0625 C 31.71875 80.242188 32.183594 80.070312 22.582031 80.070312 C 15.183594 80.070312 13.914062 80.15625 13.660156 80.707031 C 13.53125 81.089844 13.492188 81.46875 13.617188 81.554688 C 13.703125 81.640625 18.269531 81.765625 23.683594 81.765625 L 33.621094 81.808594 L 33.746094 78.632812 C 33.875 75.453125 33.875 75.410156 32.773438 75.410156 C 31.84375 75.410156 31.71875 75.582031 31.71875 77.0625 Z M 31.71875 77.0625 "/>
<path style=" stroke:none;fill-rule:nonzero;fill:rgb(0%,0%,0%);fill-opacity:1;" d="M 230.476562 77.742188 L 230.476562 80.070312 L 221.597656 80.070312 C 213.054688 80.070312 212.714844 80.113281 212.714844 80.917969 C 212.714844 81.722656 213.097656 81.722656 222.652344 81.851562 C 230.605469 81.933594 232.632812 81.851562 232.804688 81.425781 C 232.929688 81.089844 233.015625 79.605469 233.015625 78.121094 L 233.015625 75.410156 L 231.746094 75.410156 C 230.476562 75.410156 230.476562 75.453125 230.476562 77.742188 Z M 230.476562 77.742188 "/>
<path style=" stroke:none;fill-rule:nonzero;fill:rgb(0%,0%,0%);fill-opacity:1;" d="M 79.039062 77.785156 C 77.304688 79.648438 76.542969 79.859375 70.835938 80.070312 C 65.335938 80.28125 65.335938 80.28125 66.480469 81.046875 C 67.410156 81.679688 68.464844 81.808594 72.90625 81.808594 C 78.445312 81.808594 79.292969 81.597656 81.28125 79.730469 L 82.464844 78.632812 L 81.535156 77.65625 C 80.390625 76.429688 80.308594 76.429688 79.039062 77.785156 Z M 79.039062 77.785156 "/>
</g>
</svg>
