<?xml version="1.0" encoding="UTF-8"?>
<svg xmlns="http://www.w3.org/2000/svg" xmlns:xlink="http://www.w3.org/1999/xlink" width="150px" height="61px" viewBox="0 0 150 61" version="1.1">
<g id="surface1">
<path style=" stroke:none;fill-rule:nonzero;fill:rgb(0%,0%,0%);fill-opacity:1;" d="M 19.105469 15.632812 C 19.105469 17.65625 19.082031 17.65625 14.648438 17.65625 L 10.699219 17.65625 L 10.699219 22.132812 C 10.699219 24.589844 10.777344 26.609375 10.851562 26.609375 C 10.929688 26.609375 11.210938 26.484375 11.488281 26.355469 C 11.921875 26.097656 11.972656 25.792969 11.972656 22.773438 C 11.972656 20.980469 12.050781 19.320312 12.125 19.089844 C 12.253906 18.730469 12.839844 18.679688 15.921875 18.679688 C 17.933594 18.679688 19.742188 18.601562 19.972656 18.523438 C 20.304688 18.398438 20.378906 17.960938 20.378906 16.476562 C 20.378906 14.636719 20.355469 14.585938 19.742188 14.585938 C 19.15625 14.585938 19.105469 14.6875 19.105469 15.632812 Z M 19.105469 15.632812 "/>
<path style=" stroke:none;fill-rule:nonzero;fill:rgb(0%,0%,0%);fill-opacity:1;" d="M 41.320312 28.582031 L 41.398438 42.601562 L 42.671875 42.601562 L 42.746094 28.582031 L 42.800781 14.585938 L 41.269531 14.585938 Z M 41.320312 28.582031 "/>
<path style=" stroke:none;fill-rule:nonzero;fill:rgb(0%,0%,0%);fill-opacity:1;" d="M 51.460938 28.65625 L 51.460938 42.730469 L 52.988281 42.730469 L 52.988281 14.585938 L 51.460938 14.585938 Z M 51.460938 28.65625 "/>
<path style=" stroke:none;fill-rule:nonzero;fill:rgb(0%,0%,0%);fill-opacity:1;" d="M 61.90625 29.21875 C 61.878906 43.78125 61.878906 43.882812 61.320312 45.265625 C 60.964844 46.132812 60.402344 46.925781 59.792969 47.4375 C 58.824219 48.230469 58.746094 48.230469 55.332031 48.359375 L 51.84375 48.488281 L 52.554688 48.972656 C 53.167969 49.382812 53.703125 49.460938 56.503906 49.410156 C 60.097656 49.359375 61.015625 49.078125 62.03125 47.746094 C 62.363281 47.3125 62.773438 46.414062 62.898438 45.800781 C 63.078125 45.085938 63.179688 39.019531 63.179688 29.605469 L 63.179688 14.585938 L 61.90625 14.585938 Z M 61.90625 29.21875 "/>
<path style=" stroke:none;fill-rule:nonzero;fill:rgb(0%,0%,0%);fill-opacity:1;" d="M 81.726562 31.472656 L 81.800781 48.335938 L 80.578125 48.410156 C 79.6875 48.460938 79.332031 48.589844 79.28125 48.921875 C 79.203125 49.28125 79.507812 49.359375 81.242188 49.433594 L 83.304688 49.511719 L 83.304688 33.519531 C 83.304688 23.71875 83.203125 17.167969 83.050781 16.605469 C 82.898438 16.121094 82.539062 15.453125 82.234375 15.148438 L 81.648438 14.609375 Z M 81.726562 31.472656 "/>
<path style=" stroke:none;fill-rule:nonzero;fill:rgb(0%,0%,0%);fill-opacity:1;" d="M 101.773438 16.582031 L 101.773438 18.550781 L 100.578125 19.140625 C 99.457031 19.652344 99.355469 19.804688 99.355469 20.597656 C 99.355469 21.082031 99.40625 21.492188 99.480469 21.492188 C 99.53125 21.492188 100.449219 21.058594 101.519531 20.546875 C 103.429688 19.601562 103.429688 19.601562 103.429688 18.550781 C 103.429688 17.09375 103.023438 15.789062 102.335938 15.148438 L 101.75 14.585938 Z M 101.773438 16.582031 "/>
<path style=" stroke:none;fill-rule:nonzero;fill:rgb(0%,0%,0%);fill-opacity:1;" d="M 122.027344 16.121094 L 122.027344 17.65625 L 116.167969 17.65625 L 116.167969 48.359375 L 115.023438 48.359375 C 114.054688 48.359375 113.875 48.4375 113.875 48.847656 C 113.875 49.28125 114.105469 49.359375 115.785156 49.433594 L 117.695312 49.511719 L 117.695312 18.703125 L 120.574219 18.628906 L 123.429688 18.550781 L 123.503906 16.554688 L 123.582031 14.585938 L 122.027344 14.585938 Z M 122.027344 16.121094 "/>
<path style=" stroke:none;fill-rule:nonzero;fill:rgb(0%,0%,0%);fill-opacity:1;" d="M 138.789062 16.042969 L 138.714844 17.527344 L 134.714844 17.605469 L 130.691406 17.679688 L 130.691406 22.132812 C 130.691406 24.589844 130.792969 26.609375 130.894531 26.609375 C 131.019531 26.609375 131.300781 26.457031 131.53125 26.277344 C 131.886719 26.023438 131.964844 25.382812 132.015625 22.390625 L 132.089844 18.804688 L 135.886719 18.730469 C 138.179688 18.703125 139.835938 18.550781 140.039062 18.371094 C 140.242188 18.191406 140.371094 17.5 140.371094 16.351562 L 140.371094 14.585938 L 139.605469 14.585938 C 138.894531 14.585938 138.867188 14.609375 138.789062 16.042969 Z M 138.789062 16.042969 "/>
<path style=" stroke:none;fill-rule:nonzero;fill:rgb(0%,0%,0%);fill-opacity:1;" d="M 71.585938 22.746094 C 71.585938 25.816406 71.6875 27.914062 71.839844 28.019531 C 71.96875 28.09375 72.324219 28.042969 72.605469 27.890625 C 73.089844 27.632812 73.113281 27.378906 73.113281 23.15625 L 73.113281 18.679688 L 74.386719 18.679688 C 75.484375 18.679688 75.664062 18.601562 75.664062 18.167969 C 75.664062 17.707031 75.484375 17.65625 73.625 17.65625 L 71.585938 17.65625 Z M 71.585938 22.746094 "/>
<path style=" stroke:none;fill-rule:nonzero;fill:rgb(0%,0%,0%);fill-opacity:1;" d="M 91.710938 22.003906 C 91.710938 24.488281 91.8125 26.355469 91.941406 26.355469 C 92.910156 26.355469 92.984375 26.097656 92.984375 22.773438 C 92.984375 20.957031 93.0625 19.320312 93.136719 19.089844 C 93.242188 18.78125 93.648438 18.679688 94.539062 18.679688 C 95.609375 18.679688 95.789062 18.601562 95.789062 18.167969 C 95.789062 17.707031 95.609375 17.65625 93.75 17.65625 L 91.710938 17.65625 Z M 91.710938 22.003906 "/>
<path style=" stroke:none;fill-rule:nonzero;fill:rgb(0%,0%,0%);fill-opacity:1;" d="M 108.066406 18.089844 C 108.117188 18.421875 108.425781 18.578125 109.113281 18.628906 C 109.925781 18.703125 110.054688 18.628906 110.054688 18.191406 C 110.054688 17.730469 109.902344 17.65625 109.011719 17.65625 C 108.167969 17.65625 107.992188 17.730469 108.066406 18.089844 Z M 108.066406 18.089844 "/>
<path style=" stroke:none;fill-rule:nonzero;fill:rgb(0%,0%,0%);fill-opacity:1;" d="M 102.667969 25.714844 L 102.03125 26.046875 L 101.902344 35.617188 L 101.773438 45.160156 L 101.164062 46.058594 C 100.832031 46.542969 100.195312 47.234375 99.761719 47.59375 C 99.023438 48.207031 98.820312 48.230469 94.4375 48.359375 C 89.980469 48.488281 89.878906 48.488281 90.386719 48.949219 C 90.847656 49.382812 91.378906 49.410156 95.429688 49.382812 C 100.578125 49.359375 101.238281 49.179688 102.4375 47.515625 C 102.820312 46.976562 103.226562 46.058594 103.304688 45.46875 C 103.378906 44.878906 103.429688 40.121094 103.378906 34.875 L 103.304688 25.382812 Z M 102.667969 25.714844 "/>
<path style=" stroke:none;fill-rule:nonzero;fill:rgb(0%,0%,0%);fill-opacity:1;" d="M 19.566406 26.890625 C 19.257812 27.070312 19.105469 27.457031 19.105469 28.121094 C 19.105469 28.734375 18.953125 29.246094 18.671875 29.449219 C 18.445312 29.65625 16.585938 30.679688 14.546875 31.753906 L 10.828125 33.699219 L 10.828125 38.152344 C 10.828125 42.578125 10.828125 42.601562 11.414062 42.679688 C 11.972656 42.757812 11.972656 42.757812 11.972656 39.097656 C 11.972656 36.539062 12.074219 35.285156 12.277344 35.003906 C 12.457031 34.773438 14.214844 33.773438 16.175781 32.75 C 18.136719 31.726562 19.894531 30.730469 20.074219 30.5 C 20.40625 30.066406 20.507812 26.609375 20.203125 26.609375 C 20.074219 26.609375 19.792969 26.738281 19.566406 26.890625 Z M 19.566406 26.890625 "/>
<path style=" stroke:none;fill-rule:nonzero;fill:rgb(0%,0%,0%);fill-opacity:1;" d="M 139.425781 26.996094 C 139.046875 27.277344 138.839844 27.710938 138.789062 28.480469 L 138.714844 29.554688 L 134.765625 31.625 L 130.816406 33.699219 L 130.742188 38.203125 L 130.691406 42.730469 L 131.964844 42.730469 L 131.964844 38.917969 C 131.964844 36.15625 132.039062 35.054688 132.292969 34.851562 C 132.472656 34.695312 134.207031 33.75 136.167969 32.726562 C 138.128906 31.726562 139.886719 30.703125 140.066406 30.5 C 140.394531 30.066406 140.496094 26.609375 140.167969 26.609375 C 140.066406 26.609375 139.734375 26.789062 139.425781 26.996094 Z M 139.425781 26.996094 "/>
<path style=" stroke:none;fill-rule:nonzero;fill:rgb(0%,0%,0%);fill-opacity:1;" d="M 92.296875 33.339844 C 89.265625 34.875 89.164062 34.953125 89.164062 35.746094 C 89.164062 36.207031 89.242188 36.589844 89.367188 36.589844 C 89.46875 36.617188 90.949219 35.875 92.65625 35.003906 C 95.6875 33.441406 95.789062 33.367188 95.789062 32.546875 C 95.789062 32.113281 95.710938 31.726562 95.609375 31.726562 C 95.480469 31.753906 94.003906 32.46875 92.296875 33.339844 Z M 92.296875 33.339844 "/>
<path style=" stroke:none;fill-rule:nonzero;fill:rgb(0%,0%,0%);fill-opacity:1;" d="M 31.921875 32.292969 C 31.613281 32.445312 31.335938 32.726562 31.285156 32.90625 C 31.234375 33.085938 30.011719 33.851562 28.53125 34.59375 C 26.035156 35.875 25.859375 36 25.78125 36.792969 C 25.730469 37.230469 25.808594 37.613281 25.960938 37.613281 C 26.085938 37.613281 27.71875 36.84375 29.527344 35.925781 L 32.863281 34.234375 L 32.863281 33.109375 C 32.863281 31.90625 32.8125 31.855469 31.921875 32.292969 Z M 31.921875 32.292969 "/>
<path style=" stroke:none;fill-rule:nonzero;fill:rgb(0%,0%,0%);fill-opacity:1;" d="M 73.75 34.183594 C 72.785156 34.695312 71.890625 35.234375 71.789062 35.386719 C 71.6875 35.566406 71.585938 38.535156 71.585938 42.015625 L 71.585938 48.335938 L 70.390625 48.410156 C 69.496094 48.460938 69.140625 48.589844 69.089844 48.921875 C 69.011719 49.28125 69.292969 49.359375 70.949219 49.433594 C 72.019531 49.484375 72.960938 49.460938 73.011719 49.410156 C 73.0625 49.359375 73.113281 46.390625 73.113281 42.832031 L 73.113281 36.332031 L 74.386719 35.695312 C 75.558594 35.105469 75.664062 34.976562 75.664062 34.160156 C 75.664062 33.671875 75.636719 33.261719 75.613281 33.261719 C 75.558594 33.261719 74.746094 33.671875 73.75 34.183594 Z M 73.75 34.183594 "/>
<path style=" stroke:none;fill-rule:nonzero;fill:rgb(0%,0%,0%);fill-opacity:1;" d="M 92.273438 40.992188 C 91.484375 41.375 91.585938 42.578125 92.425781 42.679688 C 92.933594 42.757812 92.984375 42.652344 92.984375 41.734375 C 92.984375 41.144531 92.960938 40.683594 92.933594 40.710938 C 92.882812 40.710938 92.605469 40.835938 92.273438 40.992188 Z M 92.273438 40.992188 "/>
<path style=" stroke:none;fill-rule:nonzero;fill:rgb(0%,0%,0%);fill-opacity:1;" d="M 19.105469 46.542969 C 19.105469 48.460938 19.386719 48.359375 13.605469 48.359375 C 9.144531 48.359375 8.382812 48.410156 8.230469 48.742188 C 8.152344 48.972656 8.125 49.203125 8.203125 49.253906 C 8.253906 49.304688 11.003906 49.382812 14.265625 49.382812 L 20.253906 49.410156 L 20.328125 47.488281 C 20.40625 45.570312 20.40625 45.546875 19.742188 45.546875 C 19.183594 45.546875 19.105469 45.648438 19.105469 46.542969 Z M 19.105469 46.542969 "/>
<path style=" stroke:none;fill-rule:nonzero;fill:rgb(0%,0%,0%);fill-opacity:1;" d="M 138.839844 46.953125 L 138.839844 48.359375 L 133.492188 48.359375 C 128.347656 48.359375 128.140625 48.386719 128.140625 48.871094 C 128.140625 49.359375 128.371094 49.359375 134.128906 49.433594 C 138.917969 49.484375 140.140625 49.433594 140.242188 49.179688 C 140.320312 48.972656 140.371094 48.078125 140.371094 47.183594 L 140.371094 45.546875 L 139.605469 45.546875 C 138.839844 45.546875 138.839844 45.570312 138.839844 46.953125 Z M 138.839844 46.953125 "/>
<path style=" stroke:none;fill-rule:nonzero;fill:rgb(0%,0%,0%);fill-opacity:1;" d="M 47.613281 46.976562 C 46.570312 48.105469 46.109375 48.230469 42.671875 48.359375 C 39.359375 48.488281 39.359375 48.488281 40.046875 48.949219 C 40.609375 49.332031 41.246094 49.410156 43.917969 49.410156 C 47.257812 49.410156 47.765625 49.28125 48.964844 48.15625 L 49.675781 47.488281 L 49.117188 46.902344 C 48.429688 46.160156 48.378906 46.160156 47.613281 46.976562 Z M 47.613281 46.976562 "/>
</g>
</svg>
