<?xml version="1.0" encoding="UTF-8"?>
<svg xmlns="http://www.w3.org/2000/svg" xmlns:xlink="http://www.w3.org/1999/xlink" width="50px" height="50px" viewBox="0 0 50 50" version="1.1">
<g id="surface1">
<path style=" stroke:none;fill-rule:nonzero;fill:rgb(0%,0%,0%);fill-opacity:1;" d="M 12.222656 20.457031 L 12.222656 20.832031 L 10.277344 20.832031 L 10.277344 23.152344 L 10.464844 23.050781 L 10.648438 22.945312 L 10.648438 21.109375 L 12.644531 21.109375 L 12.628906 20.609375 L 12.617188 20.117188 L 12.421875 20.101562 L 12.222656 20.089844 Z M 12.222656 20.457031 "/>
<path style=" stroke:none;fill-rule:nonzero;fill:rgb(0%,0%,0%);fill-opacity:1;" d="M 17.683594 23.519531 L 17.683594 26.945312 L 18.054688 26.945312 L 18.054688 20.09375 L 17.683594 20.09375 Z M 17.683594 23.519531 "/>
<path style=" stroke:none;fill-rule:nonzero;fill:rgb(0%,0%,0%);fill-opacity:1;" d="M 20.140625 23.519531 L 20.140625 26.945312 L 20.507812 26.945312 L 20.507812 20.09375 L 20.140625 20.09375 Z M 20.140625 23.519531 "/>
<path style=" stroke:none;fill-rule:nonzero;fill:rgb(0%,0%,0%);fill-opacity:1;" d="M 22.59375 23.742188 L 22.59375 27.390625 L 22.472656 27.628906 C 22.34375 27.894531 22.152344 28.074219 21.875 28.199219 C 21.722656 28.269531 21.566406 28.285156 20.980469 28.285156 C 20.292969 28.285156 20.277344 28.292969 20.324219 28.378906 C 20.40625 28.53125 20.667969 28.574219 21.480469 28.554688 C 22.226562 28.542969 22.25 28.535156 22.445312 28.410156 C 22.703125 28.246094 22.898438 27.96875 22.957031 27.679688 C 22.992188 27.527344 23.007812 26.214844 23.007812 23.773438 L 23.007812 20.09375 L 22.59375 20.09375 Z M 22.59375 23.742188 "/>
<path style=" stroke:none;fill-rule:nonzero;fill:rgb(0%,0%,0%);fill-opacity:1;" d="M 37.222656 20.464844 L 37.222656 20.832031 L 35.832031 20.832031 L 35.832031 28.285156 L 35.277344 28.285156 L 35.277344 28.566406 L 36.25 28.566406 L 36.25 21.109375 L 37.640625 21.109375 L 37.640625 20.09375 L 37.222656 20.09375 Z M 37.222656 20.464844 "/>
<path style=" stroke:none;fill-rule:nonzero;fill:rgb(0%,0%,0%);fill-opacity:1;" d="M 41.296875 20.464844 L 41.296875 20.832031 L 39.304688 20.832031 L 39.304688 23.148438 L 39.515625 23.046875 L 39.722656 22.945312 L 39.722656 21.109375 L 41.667969 21.109375 L 41.667969 20.09375 L 41.296875 20.09375 Z M 41.296875 20.464844 "/>
<path style=" stroke:none;fill-rule:nonzero;fill:rgb(0%,0%,0%);fill-opacity:1;" d="M 27.421875 20.265625 C 27.464844 20.359375 27.480469 21.347656 27.492188 24.339844 L 27.503906 28.285156 L 26.898438 28.285156 L 26.898438 28.566406 L 27.871094 28.566406 L 27.859375 24.59375 L 27.847656 20.625 L 27.742188 20.429688 C 27.597656 20.152344 27.304688 20.003906 27.421875 20.265625 Z M 27.421875 20.265625 "/>
<path style=" stroke:none;fill-rule:nonzero;fill:rgb(0%,0%,0%);fill-opacity:1;" d="M 32.292969 20.242188 C 32.304688 20.300781 32.332031 20.507812 32.347656 20.703125 L 32.371094 21.058594 L 32.007812 21.246094 C 31.804688 21.347656 31.671875 21.429688 31.703125 21.433594 C 31.742188 21.433594 31.757812 21.507812 31.757812 21.644531 C 31.757812 21.757812 31.769531 21.851562 31.78125 21.851562 C 31.796875 21.851562 32.015625 21.746094 32.269531 21.621094 L 32.730469 21.390625 L 32.730469 21.074219 C 32.730469 20.695312 32.625 20.355469 32.46875 20.230469 C 32.308594 20.109375 32.25 20.117188 32.292969 20.242188 Z M 32.292969 20.242188 "/>
<path style=" stroke:none;fill-rule:nonzero;fill:rgb(0%,0%,0%);fill-opacity:1;" d="M 25 22.175781 C 25 22.910156 25.007812 23.519531 25.027344 23.519531 C 25.042969 23.519531 25.132812 23.472656 25.230469 23.410156 L 25.417969 23.308594 L 25.417969 21.109375 L 26.066406 21.109375 L 26.066406 20.832031 L 25 20.832031 Z M 25 22.175781 "/>
<path style=" stroke:none;fill-rule:nonzero;fill:rgb(0%,0%,0%);fill-opacity:1;" d="M 29.90625 21.96875 L 29.90625 23.101562 L 30.09375 23.007812 L 30.277344 22.917969 L 30.277344 21.109375 L 30.925781 21.109375 L 30.925781 20.832031 L 29.90625 20.832031 Z M 29.90625 21.96875 "/>
<path style=" stroke:none;fill-rule:nonzero;fill:rgb(0%,0%,0%);fill-opacity:1;" d="M 33.890625 20.972656 C 33.890625 21.109375 33.894531 21.109375 34.144531 21.109375 C 34.394531 21.109375 34.398438 21.109375 34.398438 20.972656 C 34.398438 20.832031 34.394531 20.832031 34.144531 20.832031 C 33.894531 20.832031 33.890625 20.832031 33.890625 20.972656 Z M 33.890625 20.972656 "/>
<path style=" stroke:none;fill-rule:nonzero;fill:rgb(0%,0%,0%);fill-opacity:1;" d="M 32.535156 22.828125 L 32.359375 22.917969 L 32.359375 25.09375 C 32.359375 27.15625 32.355469 27.277344 32.269531 27.515625 C 32.160156 27.800781 31.910156 28.078125 31.644531 28.199219 C 31.480469 28.273438 31.332031 28.285156 30.476562 28.285156 C 29.933594 28.285156 29.492188 28.304688 29.492188 28.324219 C 29.492188 28.347656 29.53125 28.402344 29.589844 28.453125 C 29.675781 28.53125 29.777344 28.542969 30.753906 28.554688 C 31.984375 28.574219 32.097656 28.550781 32.398438 28.222656 C 32.742188 27.847656 32.734375 27.917969 32.722656 25.175781 L 32.707031 22.742188 Z M 32.535156 22.828125 "/>
<path style=" stroke:none;fill-rule:nonzero;fill:rgb(0%,0%,0%);fill-opacity:1;" d="M 12.398438 23.117188 C 12.230469 23.214844 12.222656 23.226562 12.222656 23.472656 L 12.222656 23.726562 L 11.25 24.230469 L 10.277344 24.730469 L 10.277344 26.945312 L 10.648438 26.945312 L 10.65625 25.992188 L 10.671875 25.03125 L 12.640625 24.015625 L 12.640625 23.507812 C 12.640625 23.234375 12.625 23.007812 12.605469 23.007812 C 12.582031 23.015625 12.492188 23.058594 12.398438 23.117188 Z M 12.398438 23.117188 "/>
<path style=" stroke:none;fill-rule:nonzero;fill:rgb(0%,0%,0%);fill-opacity:1;" d="M 41.480469 23.101562 C 41.328125 23.179688 41.320312 23.203125 41.296875 23.453125 L 41.273438 23.726562 L 40.292969 24.234375 L 39.304688 24.746094 L 39.304688 26.945312 L 39.722656 26.945312 L 39.722656 25.023438 L 40.675781 24.535156 C 41.199219 24.269531 41.640625 24.027344 41.648438 24 C 41.660156 23.972656 41.660156 23.742188 41.65625 23.484375 L 41.644531 23.019531 Z M 41.480469 23.101562 "/>
<path style=" stroke:none;fill-rule:nonzero;fill:rgb(0%,0%,0%);fill-opacity:1;" d="M 30.082031 24.621094 L 29.304688 25.023438 L 29.304688 25.269531 C 29.304688 25.40625 29.320312 25.507812 29.34375 25.5 C 29.359375 25.492188 29.722656 25.308594 30.152344 25.09375 L 30.925781 24.699219 L 30.925781 24.457031 C 30.925781 24.324219 30.910156 24.214844 30.894531 24.21875 C 30.871094 24.21875 30.507812 24.402344 30.082031 24.621094 Z M 30.082031 24.621094 "/>
<path style=" stroke:none;fill-rule:nonzero;fill:rgb(0%,0%,0%);fill-opacity:1;" d="M 15.429688 24.382812 C 15.347656 24.425781 15.277344 24.496094 15.277344 24.53125 C 15.277344 24.582031 15.046875 24.722656 14.605469 24.945312 L 13.933594 25.277344 L 13.933594 25.507812 C 13.933594 25.632812 13.945312 25.742188 13.957031 25.742188 C 13.972656 25.742188 14.355469 25.550781 14.816406 25.324219 L 15.648438 24.90625 L 15.648438 24.605469 C 15.648438 24.441406 15.632812 24.304688 15.617188 24.308594 C 15.59375 24.308594 15.507812 24.347656 15.429688 24.382812 Z M 15.429688 24.382812 "/>
<path style=" stroke:none;fill-rule:nonzero;fill:rgb(0%,0%,0%);fill-opacity:1;" d="M 25.507812 24.855469 L 25.023438 25.125 L 25.007812 26.703125 L 25 28.285156 L 24.722656 28.285156 C 24.445312 28.285156 24.445312 28.285156 24.445312 28.425781 L 24.445312 28.566406 L 25.417969 28.566406 L 25.417969 25.421875 L 25.742188 25.25 L 26.066406 25.074219 L 26.066406 24.828125 C 26.066406 24.695312 26.050781 24.582031 26.03125 24.582031 C 26.007812 24.589844 25.777344 24.707031 25.507812 24.855469 Z M 25.507812 24.855469 "/>
<path style=" stroke:none;fill-rule:nonzero;fill:rgb(0%,0%,0%);fill-opacity:1;" d="M 30.082031 26.484375 C 29.925781 26.566406 29.90625 26.59375 29.90625 26.757812 C 29.90625 26.945312 29.90625 26.945312 30.09375 26.945312 L 30.277344 26.945312 L 30.277344 26.667969 C 30.277344 26.515625 30.273438 26.390625 30.269531 26.390625 C 30.257812 26.394531 30.175781 26.433594 30.082031 26.484375 Z M 30.082031 26.484375 "/>
<path style=" stroke:none;fill-rule:nonzero;fill:rgb(0%,0%,0%);fill-opacity:1;" d="M 12.222656 27.941406 L 12.222656 28.285156 L 9.675781 28.285156 L 9.675781 28.566406 L 12.640625 28.566406 L 12.640625 27.59375 L 12.222656 27.59375 Z M 12.222656 27.941406 "/>
<path style=" stroke:none;fill-rule:nonzero;fill:rgb(0%,0%,0%);fill-opacity:1;" d="M 41.296875 27.941406 L 41.296875 28.285156 L 38.75 28.285156 L 38.75 28.566406 L 41.667969 28.566406 L 41.667969 27.59375 L 41.296875 27.59375 Z M 41.296875 27.941406 "/>
<path style=" stroke:none;fill-rule:nonzero;fill:rgb(0%,0%,0%);fill-opacity:1;" d="M 19.273438 27.867188 C 19.191406 27.96875 19.015625 28.101562 18.878906 28.167969 C 18.652344 28.277344 18.597656 28.285156 17.953125 28.285156 C 17.566406 28.285156 17.269531 28.304688 17.269531 28.328125 C 17.269531 28.351562 17.324219 28.417969 17.390625 28.46875 C 17.503906 28.554688 17.574219 28.566406 18.300781 28.566406 C 19.175781 28.566406 19.332031 28.523438 19.625 28.222656 L 19.757812 28.078125 L 19.59375 27.882812 L 19.421875 27.691406 Z M 19.273438 27.867188 "/>
<path style=" stroke:none;fill-rule:nonzero;fill:rgb(0%,0%,0%);fill-opacity:1;" d="M 20.117188 28.285156 C 20.128906 28.308594 20.167969 28.332031 20.191406 28.332031 C 20.21875 28.332031 20.222656 28.308594 20.207031 28.285156 C 20.195312 28.257812 20.15625 28.242188 20.132812 28.242188 C 20.105469 28.242188 20.101562 28.257812 20.117188 28.285156 Z M 20.117188 28.285156 "/>
</g>
</svg>
