<?xml version="1.0" standalone="no"?>
<!DOCTYPE svg PUBLIC "-//W3C//DTD SVG 20010904//EN"
 "http://www.w3.org/TR/2001/REC-SVG-20010904/DTD/svg10.dtd">
<svg version="1.0" xmlns="http://www.w3.org/2000/svg"
 width="1024.000000pt" height="1024.000000pt" viewBox="0 0 1024.000000 1024.000000"
 preserveAspectRatio="xMidYMid meet">

<g transform="translate(0.000000,1024.000000) scale(0.100000,-0.100000)"
fill="#000000" stroke="none">
<path d="M3929 9577 c6 -8 9 -16 6 -19 -3 -2 2 -5 10 -5 13 0 13 3 -2 19 -19
21 -31 25 -14 5z"/>
<path d="M7015 9508 c-11 -6 -143 -136 -292 -287 -269 -272 -290 -300 -261
-329 30 -30 56 -10 313 248 l260 260 260 -260 c211 -210 266 -260 288 -260 29
0 52 30 43 58 -7 21 -568 582 -581 582 -6 0 -19 -6 -30 -12z"/>
<path d="M4110 9441 c0 -6 4 -13 10 -16 6 -3 7 1 4 9 -7 18 -14 21 -14 7z"/>
<path d="M6563 9353 c9 -2 23 -2 30 0 6 3 -1 5 -18 5 -16 0 -22 -2 -12 -5z"/>
<path d="M4097 9281 c-4 -17 -3 -21 5 -13 5 5 8 16 6 23 -3 8 -7 3 -11 -10z"/>
<path d="M6807 9052 l-227 -227 0 -258 0 -257 135 0 135 0 0 260 0 260 183 -2
182 -3 0 -258 0 -257 138 0 137 0 0 258 0 257 -228 228 -227 227 -228 -228z"/>
<path d="M3896 9085 c-3 -8 -1 -15 4 -15 6 0 10 7 10 15 0 8 -2 15 -4 15 -2 0
-6 -7 -10 -15z"/>
<path d="M3866 9038 c3 -5 10 -6 15 -3 13 9 11 12 -6 12 -8 0 -12 -4 -9 -9z"/>
<path d="M4161 8994 c0 -11 3 -14 6 -6 3 7 2 16 -1 19 -3 4 -6 -2 -5 -13z"/>
<path d="M3976 8962 c-3 -5 1 -9 9 -9 8 0 12 4 9 9 -3 4 -7 8 -9 8 -2 0 -6 -4
-9 -8z"/>
<path d="M4051 8904 c1 -10 5 -32 10 -49 7 -26 7 -24 5 13 -2 23 -6 46 -10 49
-3 4 -5 -2 -5 -13z"/>
<path d="M4192 8890 c0 -19 2 -27 5 -17 2 9 2 25 0 35 -3 9 -5 1 -5 -18z"/>
<path d="M2970 8827 c0 -2 6 -10 14 -16 11 -9 16 -9 22 1 4 7 4 10 -1 6 -4 -4
-14 -3 -22 3 -7 6 -13 9 -13 6z"/>
<path d="M4161 8794 c0 -11 3 -14 6 -6 3 7 2 16 -1 19 -3 4 -6 -2 -5 -13z"/>
<path d="M3079 8757 c6 -8 7 -18 3 -22 -4 -5 -1 -5 6 -1 10 6 10 11 1 22 -6 8
-14 14 -16 14 -3 0 0 -6 6 -13z"/>
<path d="M3363 8755 c0 -8 4 -12 9 -9 5 3 6 10 3 15 -9 13 -12 11 -12 -6z"/>
<path d="M3425 8721 c-3 -5 -2 -12 3 -15 5 -3 9 1 9 9 0 17 -3 19 -12 6z"/>
<path d="M2860 8706 c0 -8 4 -17 9 -20 5 -4 7 3 4 14 -6 23 -13 26 -13 6z"/>
<path d="M3148 8713 c7 -3 16 -2 19 1 4 3 -2 6 -13 5 -11 0 -14 -3 -6 -6z"/>
<path d="M6065 8699 c-4 -6 -5 -12 -2 -15 2 -3 7 2 10 11 7 17 1 20 -8 4z"/>
<path d="M1801 8645 c-39 -33 -60 -99 -69 -215 l-7 -93 -97 -3 c-176 -5 -289
-39 -337 -100 -48 -61 -13 -159 84 -239 58 -47 214 -145 232 -145 17 0 16 -18
-2 -54 -9 -17 -29 -68 -46 -115 -52 -147 -41 -240 32 -279 55 -29 192 16 316
104 35 25 66 44 67 42 2 -1 16 -23 33 -48 17 -25 55 -68 85 -97 89 -83 160
-91 209 -23 26 35 49 133 49 206 0 72 -2 70 100 73 69 3 163 21 197 39 36 20
73 72 73 103 0 72 -97 195 -216 274 -63 42 -62 33 -10 150 84 191 86 331 6
373 -62 32 -193 -10 -321 -104 l-63 -47 -15 24 c-41 61 -118 144 -159 170 -57
36 -100 37 -141 4z m146 -101 c38 -22 123 -114 123 -133 0 -4 -24 -30 -52 -58
l-53 -52 -50 9 c-27 5 -68 12 -89 15 l-39 6 6 75 c13 153 59 194 154 138z
m520 -19 c45 -32 36 -127 -27 -279 -46 -109 -36 -105 -132 -62 l-83 38 -40 86
c-22 47 -41 88 -43 91 -3 9 116 87 178 116 62 28 116 32 147 10z m-334 -211
c16 -31 27 -58 25 -59 -6 -6 -138 29 -138 37 0 8 71 77 80 78 3 0 18 -25 33
-56z m-387 -126 c6 -48 14 -94 17 -103 5 -12 -78 -158 -113 -198 -9 -10 -118
51 -188 105 -95 74 -138 149 -113 196 29 55 155 92 301 89 l84 -2 12 -87z
m133 76 c17 -4 31 -9 31 -13 0 -14 -94 -121 -101 -114 -3 5 -9 36 -13 71 l-6
62 29 0 c16 0 43 -3 60 -6z m227 -55 l91 -29 26 -73 c53 -148 54 -152 24 -195
-15 -20 -52 -67 -83 -104 -64 -77 -72 -80 -181 -51 -63 17 -67 20 -85 63 -38
87 -80 248 -70 265 5 10 38 50 73 90 73 83 57 80 205 34z m211 -84 c23 -14 43
-29 43 -32 0 -12 -51 -93 -58 -93 -7 0 -42 116 -42 139 0 16 8 14 57 -14z
m219 -149 c104 -94 131 -175 73 -219 -34 -24 -128 -47 -201 -47 -65 0 -56 -16
-78 138 l-10 73 47 73 48 74 29 -17 c15 -9 57 -42 92 -75z m-746 17 c0 -10 13
-56 29 -103 16 -47 27 -87 25 -89 -2 -2 -36 10 -76 26 -86 35 -88 42 -34 126
37 58 56 71 56 40z m504 -179 c3 -26 6 -60 6 -77 l0 -29 -67 7 c-38 4 -70 9
-72 10 -4 5 111 135 119 135 4 0 10 -21 14 -46z m-507 -41 l91 -35 31 -69 c17
-38 31 -73 31 -77 0 -10 -105 -76 -170 -106 -73 -34 -129 -34 -161 0 -20 22
-24 35 -23 87 0 37 10 88 24 127 35 100 49 123 68 115 9 -4 58 -22 109 -42z
m227 -69 c42 -7 43 -10 14 -41 -29 -31 -41 -29 -61 12 -21 43 -21 49 -3 42 8
-3 31 -9 50 -13z m235 -40 l53 -7 -6 -51 c-20 -178 -93 -220 -196 -117 -26 26
-55 60 -65 75 l-19 28 50 44 c53 48 38 46 183 28z"/>
<path d="M1982 8055 c-27 -22 -32 -34 -32 -69 0 -69 56 -105 128 -82 26 9 52
54 52 90 0 36 -39 76 -81 82 -28 5 -41 1 -67 -21z"/>
<path d="M2871 8644 c0 -11 3 -14 6 -6 3 7 2 16 -1 19 -3 4 -6 -2 -5 -13z"/>
<path d="M2976 8617 c3 -10 9 -15 12 -12 3 3 0 11 -7 18 -10 9 -11 8 -5 -6z"/>
<path d="M8239 8607 c6 -8 7 -18 3 -22 -4 -5 -1 -5 6 -1 10 6 10 11 1 22 -6 8
-14 14 -16 14 -3 0 0 -6 6 -13z"/>
<path d="M2881 8594 c0 -11 3 -14 6 -6 3 7 2 16 -1 19 -3 4 -6 -2 -5 -13z"/>
<path d="M3606 8557 c3 -10 9 -15 12 -12 3 3 0 11 -7 18 -10 9 -11 8 -5 -6z"/>
<path d="M6222 8540 c0 -14 2 -19 5 -12 2 6 2 18 0 25 -3 6 -5 1 -5 -13z"/>
<path d="M3106 8522 c-3 -5 1 -9 9 -9 8 0 12 4 9 9 -3 4 -7 8 -9 8 -2 0 -6 -4
-9 -8z"/>
<path d="M8400 8491 c0 -5 5 -13 10 -16 6 -3 10 -2 10 4 0 5 -4 13 -10 16 -5
3 -10 2 -10 -4z"/>
<path d="M3144 8469 c-3 -6 -2 -15 3 -20 5 -5 9 -1 9 11 0 23 -2 24 -12 9z"/>
<path d="M6001 8464 c0 -11 3 -14 6 -6 3 7 2 16 -1 19 -3 4 -6 -2 -5 -13z"/>
<path d="M8344 8462 c-10 -15 -8 -18 10 -19 11 -1 16 1 9 4 -7 2 -9 11 -6 19
7 20 0 18 -13 -4z"/>
<path d="M3532 8440 c0 -14 2 -19 5 -12 2 6 2 18 0 25 -3 6 -5 1 -5 -13z"/>
<path d="M5340 8426 c0 -2 7 -7 16 -10 8 -3 12 -2 9 4 -6 10 -25 14 -25 6z"/>
<path d="M8221 8414 c0 -11 3 -14 6 -6 3 7 2 16 -1 19 -3 4 -6 -2 -5 -13z"/>
<path d="M8251 8404 c0 -11 3 -14 6 -6 3 7 2 16 -1 19 -3 4 -6 -2 -5 -13z"/>
<path d="M3531 8394 c0 -11 3 -14 6 -6 3 7 2 16 -1 19 -3 4 -6 -2 -5 -13z"/>
<path d="M5058 8383 c6 -2 9 -10 6 -15 -4 -7 -2 -8 5 -4 13 9 5 26 -12 25 -9
0 -8 -2 1 -6z"/>
<path d="M8520 8381 c0 -6 4 -13 10 -16 6 -3 7 1 4 9 -7 18 -14 21 -14 7z"/>
<path d="M3075 8360 c-3 -6 1 -7 9 -4 18 7 21 14 7 14 -6 0 -13 -4 -16 -10z"/>
<path d="M5021 8356 c-8 -10 -9 -16 -1 -21 5 -3 10 -5 11 -3 4 18 7 38 4 38
-1 0 -8 -6 -14 -14z"/>
<path d="M3531 8344 c0 -11 3 -14 6 -6 3 7 2 16 -1 19 -3 4 -6 -2 -5 -13z"/>
<path d="M3110 8334 c0 -5 14 -25 31 -44 l30 -35 -27 40 c-16 22 -29 42 -31
44 -2 2 -3 0 -3 -5z"/>
<path d="M8241 8324 c0 -11 3 -14 6 -6 3 7 2 16 -1 19 -3 4 -6 -2 -5 -13z"/>
<path d="M3758 8273 c45 -2 119 -2 165 0 45 1 8 3 -83 3 -91 0 -128 -2 -82 -3z"/>
<path d="M8271 8264 c0 -11 3 -14 6 -6 3 7 2 16 -1 19 -3 4 -6 -2 -5 -13z"/>
<path d="M3360 8255 c0 -2 10 -10 23 -16 20 -11 21 -11 8 4 -13 16 -31 23 -31
12z"/>
<path d="M3506 8243 c-6 -14 -5 -15 5 -6 7 7 10 15 7 18 -3 3 -9 -2 -12 -12z"/>
<path d="M8280 8221 c0 -6 4 -13 10 -16 6 -3 7 1 4 9 -7 18 -14 21 -14 7z"/>
<path d="M3246 8193 c-6 -14 -5 -15 5 -6 7 7 10 15 7 18 -3 3 -9 -2 -12 -12z"/>
<path d="M8601 8174 c0 -11 3 -14 6 -6 3 7 2 16 -1 19 -3 4 -6 -2 -5 -13z"/>
<path d="M3130 8166 c0 -2 8 -10 18 -17 15 -13 16 -12 3 4 -13 16 -21 21 -21
13z"/>
<path d="M5033 8148 c-1 -11 1 -16 5 -12 4 5 11 12 15 15 5 3 2 9 -5 12 -9 3
-14 -3 -15 -15z"/>
<path d="M3310 8100 c-9 -6 -10 -10 -3 -10 6 0 15 5 18 10 8 12 4 12 -15 0z"/>
<path d="M8311 8073 c7 -12 15 -20 18 -17 3 2 -3 12 -13 22 -17 16 -18 16 -5
-5z"/>
<path d="M5126 8037 c3 -10 9 -15 12 -12 3 3 0 11 -7 18 -10 9 -11 8 -5 -6z"/>
<path d="M5201 7984 c0 -11 3 -14 6 -6 3 7 2 16 -1 19 -3 4 -6 -2 -5 -13z"/>
<path d="M5279 7983 c-13 -17 -13 -17 6 -3 11 8 22 16 24 17 2 2 0 3 -6 3 -6
0 -17 -8 -24 -17z"/>
<path d="M8581 7934 c0 -11 3 -14 6 -6 3 7 2 16 -1 19 -3 4 -6 -2 -5 -13z"/>
<path d="M5121 7914 c0 -11 3 -14 6 -6 3 7 2 16 -1 19 -3 4 -6 -2 -5 -13z"/>
<path d="M5637 7890 c-3 -11 -1 -20 4 -20 5 0 9 9 9 20 0 11 -2 20 -4 20 -2 0
-6 -9 -9 -20z"/>
<path d="M5400 7896 c0 -2 7 -7 16 -10 8 -3 12 -2 9 4 -6 10 -25 14 -25 6z"/>
<path d="M8463 7885 c0 -8 4 -12 9 -9 5 3 6 10 3 15 -9 13 -12 11 -12 -6z"/>
<path d="M5299 7833 c-13 -16 -12 -17 4 -4 9 7 17 15 17 17 0 8 -8 3 -21 -13z"/>
<path d="M5170 7801 c0 -6 4 -13 10 -16 6 -3 7 1 4 9 -7 18 -14 21 -14 7z"/>
<path d="M5055 7769 c-4 -6 -5 -12 -2 -15 2 -3 7 2 10 11 7 17 1 20 -8 4z"/>
<path d="M5316 7747 c3 -10 9 -15 12 -12 3 3 0 11 -7 18 -10 9 -11 8 -5 -6z"/>
<path d="M5111 7734 c0 -11 3 -14 6 -6 3 7 2 16 -1 19 -3 4 -6 -2 -5 -13z"/>
<path d="M5040 7670 c0 -5 5 -10 10 -10 6 0 10 5 10 10 0 6 -4 10 -10 10 -5 0
-10 -4 -10 -10z"/>
<path d="M5343 7633 c9 -2 25 -2 35 0 9 3 1 5 -18 5 -19 0 -27 -2 -17 -5z"/>
<path d="M5072 7430 c0 -14 2 -19 5 -12 2 6 2 18 0 25 -3 6 -5 1 -5 -13z"/>
<path d="M8844 7395 c-129 -28 -253 -117 -319 -229 -65 -111 -83 -267 -44
-392 57 -185 190 -302 387 -341 75 -15 89 -15 164 0 161 32 285 122 352 255
152 303 -25 659 -354 712 -81 12 -110 12 -186 -5z m25 -281 c26 -21 31 -33 31
-69 0 -36 -5 -48 -31 -69 -64 -54 -151 -14 -151 69 0 83 87 123 151 69z m302
-23 c21 -22 29 -39 29 -66 0 -27 -8 -44 -29 -66 -22 -21 -39 -29 -66 -29 -27
0 -44 8 -66 29 -21 22 -29 39 -29 66 0 27 8 44 29 66 22 21 39 29 66 29 27 0
44 -8 66 -29z m-509 -306 c65 -36 147 -62 238 -76 95 -13 192 -2 303 35 40 13
74 22 76 20 11 -11 -116 -118 -167 -142 -50 -23 -70 -27 -157 -27 -87 0 -107
4 -157 27 -63 29 -146 101 -177 154 -24 41 -18 42 41 9z"/>
<path d="M5071 7384 c0 -11 3 -14 6 -6 3 7 2 16 -1 19 -3 4 -6 -2 -5 -13z"/>
<path d="M4349 7253 c-13 -16 -12 -17 4 -4 16 13 21 21 13 21 -2 0 -10 -8 -17
-17z"/>
<path d="M5340 7040 c-92 -92 -177 -144 -285 -174 -89 -25 -195 -66 -235 -91
-53 -33 -98 -89 -111 -137 -13 -50 -7 -185 11 -218 14 -25 7 -32 -78 -82 l-53
-30 2 -69 c1 -38 6 -69 11 -69 16 0 69 40 131 99 l57 54 43 -20 c70 -35 116
-46 160 -39 151 24 299 208 376 466 29 95 68 349 59 382 -2 7 -41 -25 -88 -72z
m-41 -202 c-84 -217 -200 -393 -288 -437 -64 -32 -188 -36 -198 -5 -2 5 23 22
54 38 139 68 219 146 373 364 35 51 68 92 72 92 4 0 -1 -24 -13 -52z"/>
<path d="M1205 7069 c-4 -6 -5 -12 -2 -15 2 -3 7 2 10 11 7 17 1 20 -8 4z"/>
<path d="M6175 7000 c11 -5 27 -9 35 -9 9 0 8 4 -5 9 -11 5 -27 9 -35 9 -9 0
-8 -4 5 -9z"/>
<path d="M6141 6984 c0 -11 3 -14 6 -6 3 7 2 16 -1 19 -3 4 -6 -2 -5 -13z"/>
<path d="M6404 6973 c4 -4 16 -8 28 -10 28 -4 18 6 -12 12 -12 2 -20 1 -16 -2z"/>
<path d="M1541 6926 c-9 -11 -9 -16 0 -22 7 -4 9 -3 5 4 -3 6 2 15 11 21 10 6
13 11 7 11 -6 0 -17 -6 -23 -14z"/>
<path d="M6159 6903 c-13 -16 -12 -17 4 -4 9 7 17 15 17 17 0 8 -8 3 -21 -13z"/>
<path d="M6690 6835 c0 -5 5 -17 10 -25 5 -8 10 -10 10 -5 0 6 -5 17 -10 25
-5 8 -10 11 -10 5z"/>
<path d="M1574 6735 c0 -55 1 -76 3 -47 2 29 2 74 0 100 -2 26 -3 2 -3 -53z"/>
<path d="M1910 6756 c0 -2 8 -10 18 -17 15 -13 16 -12 3 4 -13 16 -21 21 -21
13z"/>
<path d="M1250 6649 c0 -5 5 -7 10 -4 6 3 10 8 10 11 0 2 -4 4 -10 4 -5 0 -10
-5 -10 -11z"/>
<path d="M1070 6620 c-9 -6 -10 -10 -3 -10 6 0 15 5 18 10 8 12 4 12 -15 0z"/>
<path d="M1766 6608 c3 -5 10 -6 15 -3 13 9 11 12 -6 12 -8 0 -12 -4 -9 -9z"/>
<path d="M6172 6590 c0 -14 2 -19 5 -12 2 6 2 18 0 25 -3 6 -5 1 -5 -13z"/>
<path d="M948 6573 c6 -2 18 -2 25 0 6 3 1 5 -13 5 -14 0 -19 -2 -12 -5z"/>
<path d="M6190 6541 c0 -6 4 -13 10 -16 6 -3 7 1 4 9 -7 18 -14 21 -14 7z"/>
<path d="M5550 6518 c-25 -5 -84 -7 -131 -5 l-87 3 -25 -50 c-55 -112 -157
-220 -248 -261 l-34 -16 62 6 c121 12 249 73 370 177 65 56 161 159 146 157
-4 -1 -28 -5 -53 -11z"/>
<path d="M6666 6503 c-6 -14 -5 -15 5 -6 7 7 10 15 7 18 -3 3 -9 -2 -12 -12z"/>
<path d="M2023 6468 c1 -16 5 -28 9 -28 10 0 9 9 -2 35 -8 17 -8 16 -7 -7z"/>
<path d="M1846 6451 c-3 -5 2 -15 12 -22 15 -12 16 -12 5 2 -7 9 -10 19 -6 22
3 4 4 7 0 7 -3 0 -8 -4 -11 -9z"/>
<path d="M1065 6431 c-3 -5 -2 -12 3 -15 5 -3 9 1 9 9 0 17 -3 19 -12 6z"/>
<path d="M2945 6409 c-6 -8 -4 -10 5 -4 10 6 12 4 6 -11 -6 -15 -5 -17 5 -6 9
9 10 15 2 23 -8 8 -13 7 -18 -2z"/>
<path d="M7855 6410 c-3 -5 -1 -10 5 -10 6 0 8 -6 4 -12 -4 -7 -3 -9 1 -5 12
10 15 37 5 37 -5 0 -12 -4 -15 -10z"/>
<path d="M3206 6378 c5 -8 2 -9 -10 -5 -9 4 -15 3 -11 -2 3 -6 14 -9 25 -8 14
1 16 4 8 14 -13 16 -22 17 -12 1z"/>
<path d="M928 6373 c7 -3 16 -2 19 1 4 3 -2 6 -13 5 -11 0 -14 -3 -6 -6z"/>
<path d="M2699 6363 c-13 -16 -12 -17 4 -4 16 13 21 21 13 21 -2 0 -10 -8 -17
-17z"/>
<path d="M6604 6365 c-16 -13 -16 -14 -1 -9 11 4 17 1 17 -7 0 -11 3 -11 10 1
21 32 7 40 -26 15z"/>
<path d="M7790 6366 c0 -2 7 -7 16 -10 8 -3 12 -2 9 4 -6 10 -25 14 -25 6z"/>
<path d="M2906 6352 c-3 -5 1 -9 9 -9 8 0 12 4 9 9 -3 4 -7 8 -9 8 -2 0 -6 -4
-9 -8z"/>
<path d="M1837 6339 c7 -7 15 -10 18 -7 3 3 -2 9 -12 12 -14 6 -15 5 -6 -5z"/>
<path d="M2779 6345 c-1 -3 -2 -8 -3 -12 -1 -5 -5 -15 -10 -23 -7 -12 -6 -13
4 -3 13 12 23 43 14 43 -2 0 -5 -2 -5 -5z"/>
<path d="M7755 6340 c-3 -6 1 -7 9 -4 18 7 21 14 7 14 -6 0 -13 -4 -16 -10z"/>
<path d="M7970 6339 c0 -5 5 -7 10 -4 6 3 10 8 10 11 0 2 -4 4 -10 4 -5 0 -10
-5 -10 -11z"/>
<path d="M1025 6330 c-3 -6 1 -7 9 -4 18 7 21 14 7 14 -6 0 -13 -4 -16 -10z"/>
<path d="M3365 6310 c3 -5 8 -10 11 -10 2 0 4 5 4 10 0 6 -5 10 -11 10 -5 0
-7 -4 -4 -10z"/>
<path d="M6335 6310 c-3 -6 1 -7 9 -4 18 7 21 14 7 14 -6 0 -13 -4 -16 -10z"/>
<path d="M7915 6309 c-4 -6 -5 -12 -2 -15 2 -3 7 2 10 11 7 17 1 20 -8 4z"/>
<path d="M2862 6286 c1 -14 5 -23 9 -20 7 4 0 44 -7 44 -2 0 -3 -11 -2 -24z"/>
<path d="M7860 6231 c0 -6 4 -13 10 -16 6 -3 7 1 4 9 -7 18 -14 21 -14 7z"/>
<path d="M1630 6225 c0 -5 5 -17 10 -25 5 -8 10 -10 10 -5 0 6 -5 17 -10 25
-5 8 -10 11 -10 5z"/>
<path d="M3161 6184 c0 -11 3 -14 6 -6 3 7 2 16 -1 19 -3 4 -6 -2 -5 -13z"/>
<path d="M8893 6140 c-146 -74 -218 -226 -179 -381 32 -125 120 -213 246 -245
72 -18 158 -10 224 21 55 26 119 88 151 146 28 50 30 62 30 154 0 117 -20 171
-90 240 -65 65 -124 89 -230 93 -84 3 -94 1 -152 -28z m230 -10 c46 -14 80
-33 116 -66 28 -25 51 -49 51 -54 0 -13 -93 -43 -132 -42 -20 1 -40 -3 -43 -8
-3 -6 -15 -10 -26 -10 -10 0 -19 -4 -19 -9 0 -4 11 -6 25 -3 17 3 25 0 25 -10
0 -22 -22 -38 -52 -38 -19 0 -28 -5 -28 -15 0 -16 33 -15 94 2 16 4 18 1 14
-21 -6 -28 15 -56 27 -36 10 16 22 12 56 -21 24 -23 34 -27 44 -19 15 13 55
-2 55 -20 0 -28 -47 -104 -87 -140 -85 -80 -200 -107 -298 -73 l-49 18 -1 69
0 70 -32 8 c-18 5 -33 13 -33 18 0 5 -12 15 -27 22 -42 20 -41 44 3 63 32 13
35 17 23 31 -12 14 -9 20 16 40 25 20 27 24 12 30 -12 4 -23 0 -32 -12 -13
-18 -14 -18 -32 -1 -17 18 -17 19 5 34 25 18 29 33 7 33 -8 0 -15 7 -15 15 0
11 11 15 42 15 33 0 47 -5 63 -25 18 -23 22 -24 39 -12 19 14 19 16 2 51 -19
40 -19 40 -47 26 -13 -7 -19 -7 -19 0 0 5 -7 10 -15 10 -55 0 41 70 121 89 59
14 76 13 147 -9z m-333 -398 c20 -16 21 -23 13 -48 l-10 -29 -21 35 c-35 57
-26 78 18 42z"/>
<path d="M9007 5813 c-10 -9 -8 -55 2 -72 5 -8 16 -11 28 -7 27 9 41 -11 45
-64 2 -37 6 -45 23 -45 15 0 23 10 30 40 6 22 14 46 18 53 5 7 2 18 -7 28 -9
8 -16 21 -16 28 0 24 -105 58 -123 39z"/>
<path d="M2311 6091 c-58 -85 -101 -179 -101 -221 0 -20 9 -53 20 -75 l20 -38
-38 -33 c-40 -36 -54 -42 -46 -20 19 50 -62 167 -158 226 l-51 32 6 -74 c11
-130 26 -179 66 -219 20 -20 42 -38 49 -40 10 -3 7 -18 -12 -59 -20 -41 -26
-71 -26 -121 0 -56 -3 -67 -18 -71 -40 -11 -185 -227 -198 -294 -12 -64 60
-141 199 -215 53 -28 65 -38 47 -38 -14 0 -56 17 -95 37 -38 21 -83 46 -100
55 -16 9 -52 26 -79 38 -48 22 -121 88 -241 221 -55 60 -105 91 -122 74 -23
-23 136 -276 237 -376 108 -107 301 -207 443 -230 79 -13 146 -7 312 27 105
21 238 31 296 22 33 -5 72 -21 105 -43 l52 -35 7 38 c7 45 -10 184 -30 242
-23 65 -53 98 -139 154 -174 113 -562 322 -620 335 -30 6 -31 8 -28 56 2 53
46 154 66 154 6 0 17 -13 23 -30 25 -67 126 -88 257 -54 95 25 95 26 23 73
-83 54 -163 84 -200 77 -16 -3 -27 -2 -25 2 6 15 85 82 96 82 6 0 27 14 46 31
38 33 56 79 56 142 0 46 -28 173 -45 206 -12 24 -13 23 -54 -38z m-221 -765
c0 -8 23 -34 51 -58 118 -100 169 -152 179 -184 15 -45 2 -67 -62 -98 -85 -41
-106 -42 -178 -6 -128 65 -136 97 -62 257 42 92 72 128 72 89z"/>
<path d="M7816 6142 c-3 -5 1 -9 9 -9 8 0 12 4 9 9 -3 4 -7 8 -9 8 -2 0 -6 -4
-9 -8z"/>
<path d="M3166 6113 c-6 -14 -5 -15 5 -6 7 7 10 15 7 18 -3 3 -9 -2 -12 -12z"/>
<path d="M3165 6081 c-6 -11 13 -26 22 -17 4 3 1 6 -6 6 -7 0 -9 5 -6 10 3 6
4 10 1 10 -3 0 -7 -4 -11 -9z"/>
<path d="M7782 6050 c-18 -29 -15 -38 4 -12 9 13 14 25 12 27 -2 2 -9 -5 -16
-15z"/>
<path d="M571 6033 c7 -12 15 -20 18 -17 3 2 -3 12 -13 22 -17 16 -18 16 -5
-5z"/>
<path d="M8088 6043 c6 -2 18 -2 25 0 6 3 1 5 -13 5 -14 0 -19 -2 -12 -5z"/>
<path d="M3415 5970 c3 -5 8 -10 11 -10 2 0 4 5 4 10 0 6 -5 10 -11 10 -5 0
-7 -4 -4 -10z"/>
<path d="M4543 5963 c284 -2 750 -2 1035 0 284 1 51 2 -518 2 -569 0 -802 -1
-517 -2z"/>
<path d="M468 5953 c18 -2 45 -2 60 0 15 2 0 4 -33 4 -33 0 -45 -2 -27 -4z"/>
<path d="M8186 5951 c-3 -5 1 -11 9 -14 9 -4 12 -1 8 9 -6 16 -10 17 -17 5z"/>
<path d="M2893 5935 c0 -8 4 -12 9 -9 5 3 6 10 3 15 -9 13 -12 11 -12 -6z"/>
<path d="M7626 5912 c-3 -5 1 -9 9 -9 8 0 12 4 9 9 -3 4 -7 8 -9 8 -2 0 -6 -4
-9 -8z"/>
<path d="M4031 5874 c-27 -23 -38 -41 -34 -51 4 -10 2 -14 -5 -9 -6 3 -14 1
-18 -5 -5 -8 -3 -9 6 -4 10 6 11 4 4 -11 -5 -11 -9 -252 -9 -559 l-1 -540 6
540 c5 568 5 559 51 610 10 11 18 24 18 30 0 5 5 11 12 14 6 2 9 -1 5 -7 -4
-6 2 -8 16 -4 19 5 20 7 5 10 -9 2 -15 8 -12 13 12 19 -6 8 -44 -27z m9 -7 c0
-2 -10 -12 -22 -23 l-23 -19 19 23 c18 21 26 27 26 19z"/>
<path d="M4110 5893 c0 -5 428 -8 950 -8 523 0 950 3 950 8 0 4 -427 7 -950 7
-522 0 -950 -3 -950 -7z"/>
<path d="M6035 5890 c-11 -5 -14 -9 -7 -9 27 -2 75 -45 92 -83 15 -33 18 -36
23 -19 3 14 1 19 -6 14 -7 -4 -8 0 -4 11 5 11 3 15 -5 10 -7 -5 -9 -2 -5 8 3
10 -7 27 -27 47 -17 17 -34 31 -36 30 -3 0 -14 -4 -25 -9z m61 -32 l29 -33
-30 25 c-16 14 -34 28 -39 32 -6 5 -6 8 0 8 6 0 23 -15 40 -32z"/>
<path d="M7607 5889 c7 -7 15 -10 18 -7 3 3 -2 9 -12 12 -14 6 -15 5 -6 -5z"/>
<path d="M7809 5883 c-13 -16 -12 -17 4 -4 9 7 17 15 17 17 0 8 -8 3 -21 -13z"/>
<path d="M2780 5856 c0 -2 8 -10 18 -17 15 -13 16 -12 3 4 -13 16 -21 21 -21
13z"/>
<path d="M6215 5275 c0 -319 1 -451 2 -293 2 158 2 419 0 580 -1 161 -2 32 -2
-287z"/>
<path d="M7670 5830 c-23 -7 -23 -8 -3 -9 12 -1 25 4 28 9 3 6 5 10 3 9 -2 -1
-14 -5 -28 -9z"/>
<path d="M3039 5803 c-13 -16 -12 -17 4 -4 16 13 21 21 13 21 -2 0 -10 -8 -17
-17z"/>
<path d="M6597 5809 c7 -7 15 -10 18 -7 3 3 -2 9 -12 12 -14 6 -15 5 -6 -5z"/>
<path d="M7496 5812 c-3 -4 4 -9 15 -9 23 -2 25 3 4 10 -8 4 -16 3 -19 -1z"/>
<path d="M2960 5790 c-9 -6 -10 -10 -3 -10 6 0 15 5 18 10 8 12 4 12 -15 0z"/>
<path d="M8033 5775 c0 -8 4 -12 9 -9 5 3 6 10 3 15 -9 13 -12 11 -12 -6z"/>
<path d="M7455 5771 c-3 -5 -2 -12 3 -15 5 -3 9 1 9 9 0 17 -3 19 -12 6z"/>
<path d="M7924 5758 l-19 -23 23 19 c21 18 27 26 19 26 -2 0 -12 -10 -23 -22z"/>
<path d="M8203 5694 c8 -95 56 -219 112 -288 45 -55 151 -141 194 -158 14 -5
92 -22 173 -38 165 -33 195 -45 231 -91 23 -30 25 -31 35 -13 18 35 34 135 27
176 -10 55 -66 115 -180 191 -49 33 -129 99 -177 147 -48 48 -89 85 -92 82
-12 -11 -5 -48 13 -77 10 -16 46 -60 79 -98 96 -105 87 -117 -59 -81 -159 40
-239 101 -301 229 -16 36 -37 70 -46 77 -14 12 -15 5 -9 -58z"/>
<path d="M9813 5733 c-11 -15 -26 -44 -32 -65 -15 -45 -78 -118 -137 -159 -45
-31 -181 -76 -244 -81 -53 -5 -49 21 13 88 71 77 107 131 107 160 0 13 -3 24
-8 24 -4 0 -48 -39 -97 -88 -50 -48 -128 -113 -175 -144 -159 -106 -191 -160
-170 -280 6 -33 16 -71 22 -84 l11 -24 18 29 c34 56 78 73 289 110 104 19 120
24 182 67 144 98 219 219 247 399 11 70 1 88 -26 48z"/>
<path d="M358 5743 c7 -3 16 -2 19 1 4 3 -2 6 -13 5 -11 0 -14 -3 -6 -6z"/>
<path d="M6141 5280 c-2 -261 -7 -686 -11 -945 l-6 -470 0 421 1 422 -110 31
c-60 18 -121 34 -135 36 -14 3 -68 14 -120 25 -141 30 -230 39 -230 24 0 -7
-12 -104 -26 -216 -14 -112 -31 -258 -38 -324 -14 -135 -29 -169 -90 -198 -29
-14 -79 -16 -348 -16 -424 0 -409 -8 -438 246 -57 499 -57 504 -76 504 -30 0
-333 -70 -419 -98 l-90 -28 -5 -420 -5 -419 -3 412 c-1 253 -6 414 -12 418 -5
3 -23 -1 -40 -10 -16 -8 -30 -12 -30 -8 0 5 -4 3 -8 -4 -4 -6 -5 -220 -2 -476
l5 -466 30 -31 c16 -16 46 -35 66 -40 24 -7 407 -9 1081 -8 987 3 1045 4 1071
21 16 10 37 32 47 50 19 31 20 54 20 499 l0 468 -35 14 -35 15 -3 523 -2 523
-4 -475z m-2131 -1440 c0 -5 -5 -10 -11 -10 -5 0 -7 5 -4 10 3 6 8 10 11 10 2
0 4 -4 4 -10z m26 -52 l29 -33 -32 29 c-31 28 -38 36 -30 36 2 0 16 -15 33
-32z m2074 19 c0 -2 -12 -14 -27 -28 l-28 -24 24 28 c23 25 31 32 31 24z
m-2005 -57 c13 -6 15 -9 5 -9 -8 0 -22 4 -30 9 -18 12 -2 12 25 0z m1935 0
c-8 -5 -22 -9 -30 -9 -10 0 -8 3 5 9 27 12 43 12 25 0z"/>
<path d="M7768 5743 c7 -3 16 -2 19 1 4 3 -2 6 -13 5 -11 0 -14 -3 -6 -6z"/>
<path d="M353 5723 c9 -2 25 -2 35 0 9 3 1 5 -18 5 -19 0 -27 -2 -17 -5z"/>
<path d="M473 5723 c9 -2 25 -2 35 0 9 3 1 5 -18 5 -19 0 -27 -2 -17 -5z"/>
<path d="M3183 5715 c0 -8 4 -12 9 -9 5 3 6 10 3 15 -9 13 -12 11 -12 -6z"/>
<path d="M7915 5710 c-3 -6 1 -7 9 -4 18 7 21 14 7 14 -6 0 -13 -4 -16 -10z"/>
<path d="M3088 5673 c7 -3 16 -2 19 1 4 3 -2 6 -13 5 -11 0 -14 -3 -6 -6z"/>
<path d="M313 5272 c-10 -9 -13 -13 -6 -9 6 5 17 6 22 3 5 -4 12 -2 15 3 12
18 -12 21 -31 3z"/>
<path d="M570 5286 c0 -2 7 -7 16 -10 8 -3 12 -2 9 4 -6 10 -25 14 -25 6z"/>
<path d="M714 5268 l-19 -23 23 19 c21 18 27 26 19 26 -2 0 -12 -10 -23 -22z"/>
<path d="M6920 5270 c0 -5 5 -10 11 -10 5 0 7 5 4 10 -3 6 -8 10 -11 10 -2 0
-4 -4 -4 -10z"/>
<path d="M686 5232 c-3 -5 1 -9 9 -9 8 0 12 4 9 9 -3 4 -7 8 -9 8 -2 0 -6 -4
-9 -8z"/>
<path d="M635 5211 c-3 -5 -2 -12 3 -15 5 -3 9 1 9 9 0 17 -3 19 -12 6z"/>
<path d="M1280 5203 c0 -35 113 -188 209 -283 68 -68 116 -106 167 -133 86
-44 101 -47 48 -9 -81 59 -193 198 -277 343 -38 66 -147 127 -147 82z"/>
<path d="M1240 5089 c0 -5 4 -7 10 -4 5 3 7 0 4 -9 -6 -15 153 -183 195 -205
11 -7 0 10 -26 36 -25 26 -71 81 -101 121 -49 65 -82 90 -82 61z"/>
<path d="M9275 5050 c-3 -6 1 -7 9 -4 18 7 21 14 7 14 -6 0 -13 -4 -16 -10z"/>
<path d="M9638 5033 c7 -3 16 -2 19 1 4 3 -2 6 -13 5 -11 0 -14 -3 -6 -6z"/>
<path d="M7021 4974 c0 -11 3 -14 6 -6 3 7 2 16 -1 19 -3 4 -6 -2 -5 -13z"/>
<path d="M325 4931 c-3 -5 -2 -12 3 -15 5 -3 9 1 9 9 0 17 -3 19 -12 6z"/>
<path d="M9245 4910 c-3 -6 1 -7 9 -4 18 7 21 14 7 14 -6 0 -13 -4 -16 -10z"/>
<path d="M9205 4890 c-3 -6 1 -7 9 -4 18 7 21 14 7 14 -6 0 -13 -4 -16 -10z"/>
<path d="M6980 4886 c0 -2 7 -7 16 -10 8 -3 12 -2 9 4 -6 10 -25 14 -25 6z"/>
<path d="M8999 4873 c-13 -16 -12 -17 4 -4 9 7 17 15 17 17 0 8 -8 3 -21 -13z"/>
<path d="M9163 4865 c0 -8 4 -12 9 -9 5 3 6 10 3 15 -9 13 -12 11 -12 -6z"/>
<path d="M4990 4570 l0 -290 27 -6 c58 -15 58 -14 61 300 l2 286 -45 0 -45 0
0 -290z"/>
<path d="M5296 4796 c-4 -33 -15 -155 -26 -270 -11 -115 -18 -217 -15 -226 7
-22 33 -30 62 -19 18 6 22 18 27 71 34 380 44 493 43 494 -1 1 -21 4 -44 7
l-42 5 -5 -62z"/>
<path d="M4706 4843 c-28 -4 -28 -5 -22 -56 3 -29 10 -108 16 -177 28 -324 28
-324 46 -337 23 -17 28 -16 53 5 l21 17 -25 255 c-14 140 -25 265 -25 278 0
23 -4 24 -64 15z"/>
<path d="M9890 4841 c0 -6 4 -13 10 -16 6 -3 7 1 4 9 -7 18 -14 21 -14 7z"/>
<path d="M442 4815 c15 -16 20 -17 30 -6 11 11 10 13 0 7 -7 -4 -21 -2 -30 5
-15 12 -15 11 0 -6z"/>
<path d="M9106 4818 c3 -5 10 -6 15 -3 13 9 11 12 -6 12 -8 0 -12 -4 -9 -9z"/>
<path d="M7238 4753 c7 -3 16 -2 19 1 4 3 -2 6 -13 5 -11 0 -14 -3 -6 -6z"/>
<path d="M7400 4750 c-9 -6 -10 -10 -3 -10 6 0 15 5 18 10 8 12 4 12 -15 0z"/>
<path d="M6718 4733 c18 -2 45 -2 60 0 15 2 0 4 -33 4 -33 0 -45 -2 -27 -4z"/>
<path d="M627 4699 c7 -7 15 -10 18 -7 3 3 -2 9 -12 12 -14 6 -15 5 -6 -5z"/>
<path d="M6865 4700 c-3 -6 1 -7 9 -4 18 7 21 14 7 14 -6 0 -13 -4 -16 -10z"/>
<path d="M6644 4535 c0 -82 2 -115 3 -72 2 43 2 110 0 150 -1 40 -3 5 -3 -78z"/>
<path d="M9236 4655 c-3 -8 -1 -15 4 -15 6 0 10 7 10 15 0 8 -2 15 -4 15 -2 0
-6 -7 -10 -15z"/>
<path d="M9631 4604 c0 -11 3 -14 6 -6 3 7 2 16 -1 19 -3 4 -6 -2 -5 -13z"/>
<path d="M7457 4571 c-4 -17 -3 -21 5 -13 5 5 8 16 6 23 -3 8 -7 3 -11 -10z"/>
<path d="M1800 4530 c0 -32 26 -95 51 -121 19 -20 37 -29 58 -29 17 0 31 3 31
7 0 4 -28 36 -62 70 -62 63 -62 81 -1 43 28 -17 83 -87 83 -107 0 -3 7 -14 15
-23 8 -8 12 -25 9 -36 -5 -18 -16 -22 -81 -28 -49 -4 -89 -13 -114 -28 -136
-76 -127 -402 14 -546 64 -66 118 -73 206 -28 30 16 36 16 79 2 61 -21 84 -20
116 5 60 47 106 197 106 343 -1 167 -61 236 -220 253 -68 7 -73 16 -40 71 11
18 20 35 20 37 0 12 -45 3 -62 -11 -14 -14 -20 -14 -33 -4 -8 7 -14 18 -13 24
6 30 -14 64 -49 83 -49 27 -113 40 -113 23z m90 -256 c0 -3 -14 -17 -32 -32
-17 -14 -40 -47 -51 -71 -27 -62 -34 -196 -14 -281 9 -36 14 -67 11 -69 -2 -3
-17 8 -33 23 -37 36 -55 118 -49 229 5 107 28 154 88 185 42 21 80 29 80 16z
m90 -29 c0 -16 6 -25 15 -25 9 0 15 9 15 25 0 33 29 33 66 1 l28 -23 -27 -27
c-22 -22 -35 -26 -79 -26 -63 0 -102 17 -106 47 -2 15 5 26 25 37 43 23 63 20
63 -9z"/>
<path d="M9636 4497 c3 -10 9 -15 12 -12 3 3 0 11 -7 18 -10 9 -11 8 -5 -6z"/>
<path d="M9176 4477 c3 -10 9 -15 12 -12 3 3 0 11 -7 18 -10 9 -11 8 -5 -6z"/>
<path d="M7455 4430 c-3 -5 -1 -10 4 -10 6 0 11 5 11 10 0 6 -2 10 -4 10 -3 0
-8 -4 -11 -10z"/>
<path d="M9621 4424 c0 -11 3 -14 6 -6 3 7 2 16 -1 19 -3 4 -6 -2 -5 -13z"/>
<path d="M9862 4410 c0 -14 2 -19 5 -12 2 6 2 18 0 25 -3 6 -5 1 -5 -13z"/>
<path d="M9240 4411 c0 -6 4 -13 10 -16 6 -3 7 1 4 9 -7 18 -14 21 -14 7z"/>
<path d="M7376 4397 c3 -10 9 -15 12 -12 3 3 0 11 -7 18 -10 9 -11 8 -5 -6z"/>
<path d="M8321 4374 c0 -11 3 -14 6 -6 3 7 2 16 -1 19 -3 4 -6 -2 -5 -13z"/>
<path d="M9024 4318 c-4 -7 -4 -10 1 -6 4 4 15 2 24 -5 14 -11 14 -10 2 6 -16
20 -18 21 -27 5z"/>
<path d="M9810 4310 c-9 -6 -10 -10 -3 -10 6 0 15 5 18 10 8 12 4 12 -15 0z"/>
<path d="M9098 4303 c17 -2 47 -2 65 0 17 2 3 4 -33 4 -36 0 -50 -2 -32 -4z"/>
<path d="M9373 4303 c37 -2 97 -2 135 0 37 2 6 3 -68 3 -74 0 -105 -1 -67 -3z"/>
<path d="M9713 4303 c15 -2 39 -2 55 0 15 2 2 4 -28 4 -30 0 -43 -2 -27 -4z"/>
<path d="M9348 4253 c7 -3 16 -2 19 1 4 3 -2 6 -13 5 -11 0 -14 -3 -6 -6z"/>
<path d="M9266 4217 c3 -10 9 -15 12 -12 3 3 0 11 -7 18 -10 9 -11 8 -5 -6z"/>
<path d="M9451 4121 c-10 -6 -9 -10 3 -14 8 -3 18 -2 21 3 8 13 -9 20 -24 11z"/>
<path d="M9097 4059 c7 -7 15 -10 18 -7 3 3 -2 9 -12 12 -14 6 -15 5 -6 -5z"/>
<path d="M9308 3963 c7 -3 16 -2 19 1 4 3 -2 6 -13 5 -11 0 -14 -3 -6 -6z"/>
<path d="M9500 3960 c-9 -6 -10 -10 -3 -10 6 0 15 5 18 10 8 12 4 12 -15 0z"/>
<path d="M3618 3883 c7 -3 16 -2 19 1 4 3 -2 6 -13 5 -11 0 -14 -3 -6 -6z"/>
<path d="M2720 3740 c8 -5 20 -10 25 -10 6 0 3 5 -5 10 -8 5 -19 10 -25 10 -5
0 -3 -5 5 -10z"/>
<path d="M9235 3700 c-3 -6 1 -7 9 -4 18 7 21 14 7 14 -6 0 -13 -4 -16 -10z"/>
<path d="M3446 3663 c-6 -14 -5 -15 5 -6 7 7 10 15 7 18 -3 3 -9 -2 -12 -12z"/>
<path d="M2856 3653 c-6 -14 -5 -15 5 -6 7 7 10 15 7 18 -3 3 -9 -2 -12 -12z"/>
<path d="M9219 3653 c-13 -16 -12 -17 4 -4 9 7 17 15 17 17 0 8 -8 3 -21 -13z"/>
<path d="M3425 3619 c-4 -6 -5 -12 -2 -15 2 -3 7 2 10 11 7 17 1 20 -8 4z"/>
<path d="M2741 3584 c0 -11 3 -14 6 -6 3 7 2 16 -1 19 -3 4 -6 -2 -5 -13z"/>
<path d="M3002 3593 c70 -2 187 -2 260 0 73 1 16 3 -127 3 -143 0 -203 -2
-133 -3z"/>
<path d="M3506 3556 c6 -15 4 -17 -6 -11 -9 6 -11 4 -5 -4 5 -9 10 -10 18 -2
8 8 7 14 -2 24 -10 10 -11 8 -5 -7z"/>
<path d="M2730 3551 c0 -6 4 -13 10 -16 6 -3 7 1 4 9 -7 18 -14 21 -14 7z"/>
<path d="M6356 3538 c3 -5 10 -6 15 -3 13 9 11 12 -6 12 -8 0 -12 -4 -9 -9z"/>
<path d="M3364 3509 c-4 -7 -3 -9 4 -5 5 3 13 0 15 -6 4 -9 6 -10 6 -1 1 17
-16 25 -25 12z"/>
<path d="M9380 3516 c0 -2 8 -10 18 -17 15 -13 16 -12 3 4 -13 16 -21 21 -21
13z"/>
<path d="M3365 3429 c-4 -6 -5 -12 -2 -15 2 -3 7 2 10 11 7 17 1 20 -8 4z"/>
<path d="M3315 3390 c-3 -5 -1 -10 4 -10 6 0 11 5 11 10 0 6 -2 10 -4 10 -3 0
-8 -4 -11 -10z"/>
<path d="M3830 3380 c8 -5 22 -9 30 -9 10 0 8 3 -5 9 -27 12 -43 12 -25 0z"/>
<path d="M6095 3380 c-13 -6 -5 -7 25 -3 25 3 47 7 49 9 9 8 -55 2 -74 -6z"/>
<path d="M3329 3363 c-13 -16 -12 -17 4 -4 16 13 21 21 13 21 -2 0 -10 -8 -17
-17z"/>
<path d="M3588 3373 c7 -3 16 -2 19 1 4 3 -2 6 -13 5 -11 0 -14 -3 -6 -6z"/>
<path d="M6355 3370 c3 -5 8 -10 11 -10 2 0 4 5 4 10 0 6 -5 10 -11 10 -5 0
-7 -4 -4 -10z"/>
<path d="M2358 3363 c6 -2 18 -2 25 0 6 3 1 5 -13 5 -14 0 -19 -2 -12 -5z"/>
<path d="M6016 3352 c-3 -5 1 -9 9 -9 8 0 12 4 9 9 -3 4 -7 8 -9 8 -2 0 -6 -4
-9 -8z"/>
<path d="M6400 3356 c0 -2 7 -7 16 -10 8 -3 12 -2 9 4 -6 10 -25 14 -25 6z"/>
<path d="M2732 3334 c10 -10 20 -16 22 -13 3 3 -5 11 -17 18 -21 13 -21 12 -5
-5z"/>
<path d="M2260 3320 c-8 -5 -10 -10 -5 -10 6 0 17 5 25 10 8 5 11 10 5 10 -5
0 -17 -5 -25 -10z"/>
<path d="M5406 3298 c-9 -12 -16 -42 -16 -65 l0 -43 -52 0 c-30 0 -68 -8 -88
-18 -64 -32 -47 -83 48 -139 23 -14 42 -28 42 -33 0 -4 -7 -24 -16 -45 -8 -20
-14 -53 -12 -73 3 -34 6 -37 36 -40 22 -2 48 5 79 23 l45 27 42 -41 c23 -23
50 -41 59 -41 21 0 47 55 47 100 0 29 2 30 43 30 54 0 91 19 95 49 3 17 -10
36 -48 73 l-51 49 22 62 c45 125 -4 158 -122 81 -27 -17 -27 -17 -66 24 -45
47 -65 52 -87 20z m82 -41 l32 -33 -24 -23 c-20 -18 -30 -21 -61 -15 -36 6
-37 8 -32 41 7 38 23 63 41 63 7 0 27 -15 44 -33z m180 11 c7 -7 12 -23 12
-37 0 -27 -35 -111 -45 -111 -38 0 -103 75 -92 104 5 13 84 56 103 56 5 0 15
-5 22 -12z m-118 -101 c0 -8 -49 -1 -59 9 -3 2 4 11 15 19 17 12 20 12 32 -2
6 -9 12 -21 12 -26z m-156 -31 c6 -37 3 -51 -16 -80 -13 -20 -28 -36 -35 -36
-15 0 -93 60 -107 83 -23 36 35 75 115 76 36 1 37 0 43 -43z m136 12 c20 -7
38 -22 47 -42 14 -30 14 -31 8 -3 -5 27 -4 27 17 16 32 -16 31 -15 18 -38 -6
-12 -15 -19 -21 -16 -5 4 -9 -2 -9 -12 0 -10 -14 -35 -31 -56 -28 -34 -35 -37
-63 -32 -41 9 -51 20 -70 79 -17 49 -17 49 9 76 14 14 25 30 25 36 0 5 -11 -4
-25 -21 -18 -22 -24 -25 -25 -13 0 9 -3 24 -7 34 -6 15 -1 16 45 10 27 -3 65
-11 82 -18z m172 -98 c23 -23 38 -47 36 -57 -7 -37 -109 -60 -122 -27 -16 43
7 124 36 124 6 0 28 -18 50 -40z m-283 -21 c7 -23 11 -42 9 -44 -2 -2 -18 3
-36 11 l-33 14 17 30 c10 16 21 30 25 30 3 0 11 -18 18 -41z m184 -46 c6 -31
5 -33 -23 -33 -36 0 -36 3 -9 42 24 34 24 34 32 -9z m-201 -2 c54 -23 79 -66
51 -87 -27 -20 -79 -44 -97 -44 -22 0 -39 37 -32 68 8 31 27 82 31 82 2 0 23
-8 47 -19z m102 -30 c3 -5 -1 -14 -8 -21 -12 -9 -17 -7 -26 9 -9 18 -8 21 9
21 11 0 22 -4 25 -9z m99 -24 c-2 -4 -3 -18 -3 -31 0 -25 -23 -56 -42 -56 -5
0 -23 14 -39 31 l-30 32 21 22 c17 18 27 21 58 16 20 -4 36 -10 35 -14z"/>
<path d="M5474 3076 c-10 -26 4 -48 28 -44 17 2 23 10 23 28 0 18 -6 26 -23
28 -13 2 -25 -3 -28 -12z"/>
<path d="M6436 3295 c4 -8 11 -15 16 -15 6 0 5 6 -2 15 -7 8 -14 15 -16 15 -2
0 -1 -7 2 -15z"/>
<path d="M3680 3269 c0 -5 5 -7 10 -4 6 3 10 8 10 11 0 2 -4 4 -10 4 -5 0 -10
-5 -10 -11z"/>
<path d="M2636 3238 c3 -5 10 -6 15 -3 13 9 11 12 -6 12 -8 0 -12 -4 -9 -9z"/>
<path d="M2120 3180 c-6 -11 -8 -20 -6 -20 3 0 10 9 16 20 6 11 8 20 6 20 -3
0 -10 -9 -16 -20z"/>
<path d="M2611 3164 c0 -11 3 -14 6 -6 3 7 2 16 -1 19 -3 4 -6 -2 -5 -13z"/>
<path d="M2565 3159 c-4 -6 -5 -12 -2 -15 2 -3 7 2 10 11 7 17 1 20 -8 4z"/>
<path d="M4140 3166 c0 -2 8 -10 18 -17 15 -13 16 -12 3 4 -13 16 -21 21 -21
13z"/>
<path d="M6391 3134 c0 -11 3 -14 6 -6 3 7 2 16 -1 19 -3 4 -6 -2 -5 -13z"/>
<path d="M3656 3127 c3 -10 9 -15 12 -12 3 3 0 11 -7 18 -10 9 -11 8 -5 -6z"/>
<path d="M2214 3108 l-19 -23 23 19 c21 18 27 26 19 26 -2 0 -12 -10 -23 -22z"/>
<path d="M3321 3094 c0 -11 3 -14 6 -6 3 7 2 16 -1 19 -3 4 -6 -2 -5 -13z"/>
<path d="M2825 3090 c-3 -5 -2 -18 4 -27 7 -14 9 -12 8 10 -2 30 -3 31 -12 17z"/>
<path d="M4066 3092 c-3 -5 1 -9 9 -9 8 0 12 4 9 9 -3 4 -7 8 -9 8 -2 0 -6 -4
-9 -8z"/>
<path d="M6387 3076 c-4 -10 -7 -25 -6 -34 0 -11 4 -9 10 7 5 13 8 29 6 35 -2
5 -6 2 -10 -8z"/>
<path d="M3130 3076 c0 -2 8 -10 18 -17 15 -13 16 -12 3 4 -13 16 -21 21 -21
13z"/>
<path d="M9380 3066 c0 -2 8 -10 18 -17 15 -13 16 -12 3 4 -13 16 -21 21 -21
13z"/>
<path d="M3776 3007 c3 -10 9 -15 12 -12 3 3 0 11 -7 18 -10 9 -11 8 -5 -6z"/>
<path d="M6426 3012 c-3 -5 1 -9 9 -9 8 0 12 4 9 9 -3 4 -7 8 -9 8 -2 0 -6 -4
-9 -8z"/>
<path d="M8620 2986 c0 -2 8 -10 18 -17 15 -13 16 -12 3 4 -13 16 -21 21 -21
13z"/>
<path d="M5990 2961 c0 -6 4 -13 10 -16 6 -3 7 1 4 9 -7 18 -14 21 -14 7z"/>
<path d="M2161 2934 c0 -11 3 -14 6 -6 3 7 2 16 -1 19 -3 4 -6 -2 -5 -13z"/>
<path d="M2828 2943 c6 -2 18 -2 25 0 6 3 1 5 -13 5 -14 0 -19 -2 -12 -5z"/>
<path d="M4081 2834 c0 -11 3 -14 6 -6 3 7 2 16 -1 19 -3 4 -6 -2 -5 -13z"/>
<path d="M4140 2720 c-6 -11 -8 -20 -6 -20 3 0 10 9 16 20 6 11 8 20 6 20 -3
0 -10 -9 -16 -20z"/>
<path d="M3994 2688 l-19 -23 23 19 c21 18 27 26 19 26 -2 0 -12 -10 -23 -22z"/>
<path d="M2740 2675 c-11 -13 -10 -14 4 -9 9 3 16 10 16 15 0 13 -6 11 -20 -6z"/>
<path d="M2284 2652 c4 -3 14 -7 22 -8 9 -1 13 0 10 4 -4 3 -14 7 -22 8 -9 1
-13 0 -10 -4z"/>
<path d="M6070 2596 c0 -2 8 -10 18 -17 15 -13 16 -12 3 4 -13 16 -21 21 -21
13z"/>
<path d="M7135 2560 c-40 -22 -47 -73 -14 -91 20 -10 25 -9 41 11 18 23 24 66
10 86 -5 8 -16 6 -37 -6z"/>
<path d="M6970 2551 c-5 -11 -10 -28 -10 -39 0 -24 37 -72 55 -72 22 0 37 39
31 76 -7 35 -26 57 -26 30 0 -9 -4 -16 -10 -16 -5 0 -12 -11 -16 -25 -3 -14
-10 -22 -15 -19 -16 10 -9 43 13 64 18 16 19 20 5 20 -9 0 -21 -9 -27 -19z"/>
<path d="M2750 2535 c-14 -8 -20 -14 -14 -15 5 0 19 7 30 15 24 18 16 19 -16
0z"/>
<path d="M3980 2530 c-9 -6 -10 -10 -3 -10 6 0 15 5 18 10 8 12 4 12 -15 0z"/>
<path d="M3228 2431 c-70 -120 -78 -146 -78 -240 0 -95 27 -156 80 -183 l35
-17 -5 -106 -5 -105 28 0 28 0 -7 103 -7 104 38 19 c60 32 80 79 80 194 0 103
-2 108 -92 261 l-39 66 -56 -96z"/>
<path d="M3915 2500 c-3 -6 1 -7 9 -4 18 7 21 14 7 14 -6 0 -13 -4 -16 -10z"/>
<path d="M7232 2475 c-26 -57 -6 -114 36 -101 21 7 42 46 42 79 0 50 -58 65
-78 22z"/>
<path d="M3850 2480 c-9 -6 -10 -10 -3 -10 6 0 15 5 18 10 8 12 4 12 -15 0z"/>
<path d="M8515 2480 c-3 -5 -1 -10 4 -10 6 0 11 5 11 10 0 6 -2 10 -4 10 -3 0
-8 -4 -11 -10z"/>
<path d="M2588 2473 c6 -2 18 -2 25 0 6 3 1 5 -13 5 -14 0 -19 -2 -12 -5z"/>
<path d="M3668 2473 c7 -3 16 -2 19 1 4 3 -2 6 -13 5 -11 0 -14 -3 -6 -6z"/>
<path d="M1253 2443 c-35 -7 -80 -56 -92 -99 -10 -40 -4 -91 17 -131 30 -56
236 -201 268 -189 32 12 142 93 186 137 86 86 95 195 21 259 -29 26 -42 30
-90 30 -51 0 -58 -3 -96 -40 l-40 -41 -31 30 c-46 45 -83 56 -143 44z"/>
<path d="M6887 2443 c-4 -3 -7 -23 -7 -43 0 -46 41 -91 68 -74 39 25 14 124
-32 124 -12 0 -26 -3 -29 -7z m53 -12 c0 -5 -7 -14 -15 -21 -8 -7 -15 -21 -15
-32 0 -10 -4 -16 -10 -13 -14 9 -13 48 2 63 14 14 38 16 38 3z"/>
<path d="M7051 2412 c-15 -15 -36 -52 -46 -82 -9 -30 -26 -64 -36 -76 -22 -23
-25 -64 -7 -82 17 -17 71 -15 113 5 33 16 37 16 70 0 51 -24 82 -22 101 8 18
27 18 26 -21 95 -7 14 -19 45 -25 69 -23 88 -94 118 -149 63z m94 -17 c31 -30
34 -50 6 -35 -29 15 -72 12 -93 -7 -17 -15 -18 -15 -18 5 0 22 43 62 67 62 8
0 25 -11 38 -25z"/>
<path d="M8026 2421 c-3 -5 2 -15 12 -22 15 -13 16 -12 4 3 -10 13 -10 17 0
21 9 4 9 6 1 6 -6 1 -14 -3 -17 -8z"/>
<path d="M8318 2393 c7 -3 16 -2 19 1 4 3 -2 6 -13 5 -11 0 -14 -3 -6 -6z"/>
<path d="M8417 2359 c7 -7 15 -10 18 -7 3 3 -2 9 -12 12 -14 6 -15 5 -6 -5z"/>
<path d="M7983 2345 c0 -8 4 -12 9 -9 5 3 6 10 3 15 -9 13 -12 11 -12 -6z"/>
<path d="M2923 2217 c-45 -74 -58 -103 -47 -105 20 -5 18 -12 -26 -88 l-40
-69 25 -3 c14 -2 25 -7 25 -12 0 -5 -18 -38 -40 -72 l-40 -63 95 -3 95 -3 0
-99 0 -100 30 0 30 0 0 100 0 100 80 0 c44 0 80 2 80 5 0 2 -16 29 -35 60 -50
78 -52 85 -21 85 14 0 26 2 26 4 0 2 -18 36 -40 75 -45 80 -46 81 -25 81 8 0
15 2 15 5 0 5 -120 205 -123 205 -1 0 -30 -46 -64 -103z"/>
<path d="M3531 2220 c-33 -55 -61 -103 -61 -105 0 -3 7 -5 15 -5 21 0 20 -3
-25 -79 -22 -37 -40 -70 -40 -74 0 -4 11 -7 25 -7 14 0 25 -3 25 -6 0 -4 -18
-35 -40 -70 -22 -35 -40 -66 -40 -69 0 -3 43 -5 95 -5 l95 0 0 -100 0 -100 31
0 30 0 -2 98 -2 97 81 5 81 5 -39 62 c-22 34 -40 67 -40 73 0 5 11 10 25 10
l26 0 -41 73 c-45 83 -45 84 -25 89 10 2 -3 31 -49 106 l-63 102 -62 -100z"/>
<path d="M8520 2255 c0 -5 5 -17 10 -25 5 -8 10 -10 10 -5 0 6 -5 17 -10 25
-5 8 -10 11 -10 5z"/>
<path d="M2041 2234 c0 -11 3 -14 6 -6 3 7 2 16 -1 19 -3 4 -6 -2 -5 -13z"/>
<path d="M7984 2185 c-3 -8 -4 -20 -2 -27 3 -7 7 -1 10 15 6 29 1 36 -8 12z"/>
<path d="M2276 2168 c3 -5 10 -6 15 -3 13 9 11 12 -6 12 -8 0 -12 -4 -9 -9z"/>
<path d="M8540 2175 c0 -5 5 -17 10 -25 5 -8 10 -10 10 -5 0 6 -5 17 -10 25
-5 8 -10 11 -10 5z"/>
<path d="M6080 2151 c0 -6 4 -13 10 -16 6 -3 7 1 4 9 -7 18 -14 21 -14 7z"/>
<path d="M2340 2076 c0 -2 8 -10 18 -17 15 -13 16 -12 3 4 -13 16 -21 21 -21
13z"/>
<path d="M5450 2046 c0 -2 7 -7 16 -10 8 -3 12 -2 9 4 -6 10 -25 14 -25 6z"/>
<path d="M5400 2006 c0 -8 4 -17 9 -20 5 -4 7 3 4 14 -6 23 -13 26 -13 6z"/>
<path d="M8583 1923 c9 -2 23 -2 30 0 6 3 -1 5 -18 5 -16 0 -22 -2 -12 -5z"/>
<path d="M2000 1905 c0 -8 2 -15 4 -15 2 0 6 7 10 15 3 8 1 15 -4 15 -6 0 -10
-7 -10 -15z"/>
<path d="M7905 1890 c-3 -5 -1 -10 4 -10 6 0 11 5 11 10 0 6 -2 10 -4 10 -3 0
-8 -4 -11 -10z"/>
<path d="M8258 1823 c7 -3 16 -2 19 1 4 3 -2 6 -13 5 -11 0 -14 -3 -6 -6z"/>
<path d="M4921 1790 c-10 -16 -21 -27 -26 -22 -4 4 -3 -2 3 -14 28 -53 85 -60
90 -11 4 29 -21 77 -38 77 -6 0 -18 -13 -29 -30z"/>
<path d="M8450 1810 c-13 -8 -12 -10 3 -10 9 0 17 5 17 10 0 12 -1 12 -20 0z"/>
<path d="M5060 1791 c-32 -61 29 -156 67 -105 27 35 -5 124 -43 124 -7 0 -18
-9 -24 -19z"/>
<path d="M5950 1750 c-9 -6 -10 -10 -3 -10 6 0 15 5 18 10 8 12 4 12 -15 0z"/>
<path d="M4793 1743 c-14 -5 -17 -41 -7 -68 8 -21 59 -46 78 -39 25 10 20 61
-9 89 -24 25 -37 28 -62 18z m33 -48 c1 -43 0 -45 -18 -29 -21 20 -23 45 -6
62 19 19 23 15 24 -33z"/>
<path d="M5798 1693 c7 -3 16 -2 19 1 4 3 -2 6 -13 5 -11 0 -14 -3 -6 -6z"/>
<path d="M4933 1656 c-28 -24 -28 -26 -28 -138 -1 -62 3 -121 7 -130 15 -32
64 -22 111 21 38 35 74 49 134 51 18 0 34 37 28 63 -4 13 -20 32 -37 41 -17
10 -52 40 -77 67 -55 57 -92 64 -138 25z m88 -6 c27 -15 23 -30 -8 -30 -37 0
-49 -9 -63 -45 -9 -23 -13 -26 -20 -15 -16 25 -11 50 15 75 26 27 46 31 76 15z"/>
<path d="M4763 1603 c-38 -15 19 -113 65 -113 46 0 49 53 4 93 -20 18 -20 18
-27 -3 -4 -12 -4 -32 -1 -45 5 -19 3 -23 -9 -19 -24 10 -30 52 -10 74 18 20 8
26 -22 13z"/>
<path d="M6110 1576 c0 -2 9 -6 20 -9 11 -3 18 -1 14 4 -5 9 -34 13 -34 5z"/>
<path d="M2676 1547 c3 -10 9 -15 12 -12 3 3 0 11 -7 18 -10 9 -11 8 -5 -6z"/>
<path d="M6078 1543 c12 -2 30 -2 40 0 9 3 -1 5 -23 4 -22 0 -30 -2 -17 -4z"/>
<path d="M6298 1543 c12 -2 32 -2 45 0 12 2 2 4 -23 4 -25 0 -35 -2 -22 -4z"/>
<path d="M6268 1473 c7 -3 16 -2 19 1 4 3 -2 6 -13 5 -11 0 -14 -3 -6 -6z"/>
<path d="M6063 1395 c0 -38 2 -53 4 -32 2 20 2 52 0 70 -2 17 -4 1 -4 -38z"/>
<path d="M5478 1403 c7 -3 16 -2 19 1 4 3 -2 6 -13 5 -11 0 -14 -3 -6 -6z"/>
<path d="M5727 1349 c7 -7 15 -10 18 -7 3 3 -2 9 -12 12 -14 6 -15 5 -6 -5z"/>
<path d="M5818 1333 c7 -3 16 -2 19 1 4 3 -2 6 -13 5 -11 0 -14 -3 -6 -6z"/>
<path d="M5978 1313 c7 -3 16 -2 19 1 4 3 -2 6 -13 5 -11 0 -14 -3 -6 -6z"/>
<path d="M5520 1275 c-7 -8 -17 -12 -23 -8 -6 4 -7 1 -3 -6 6 -9 13 -8 27 5
10 9 19 19 19 21 0 7 -8 2 -20 -12z"/>
<path d="M5296 1205 c-9 -26 -7 -32 5 -12 6 10 9 21 6 23 -2 3 -7 -2 -11 -11z"/>
<path d="M2116 1192 c-3 -5 1 -9 9 -9 8 0 12 4 9 9 -3 4 -7 8 -9 8 -2 0 -6 -4
-9 -8z"/>
<path d="M3125 1110 c3 -5 8 -10 11 -10 2 0 4 5 4 10 0 6 -5 10 -11 10 -5 0
-7 -4 -4 -10z"/>
<path d="M6064 800 c0 -179 2 -252 3 -162 2 89 2 235 0 325 -1 89 -3 16 -3
-163z"/>
<path d="M3241 894 c0 -11 3 -14 6 -6 3 7 2 16 -1 19 -3 4 -6 -2 -5 -13z"/>
<path d="M5397 891 c-4 -17 -3 -21 5 -13 5 5 8 16 6 23 -3 8 -7 3 -11 -10z"/>
<path d="M5283 823 c26 -2 67 -2 90 0 23 2 2 3 -48 3 -49 0 -68 -1 -42 -3z"/>
<path d="M3220 770 c-6 -11 -8 -20 -6 -20 3 0 10 9 16 20 6 11 8 20 6 20 -3 0
-10 -9 -16 -20z"/>
<path d="M3006 732 c-3 -5 1 -9 9 -9 8 0 12 4 9 9 -3 4 -7 8 -9 8 -2 0 -6 -4
-9 -8z"/>
<path d="M5330 691 c0 -6 4 -13 10 -16 6 -3 7 1 4 9 -7 18 -14 21 -14 7z"/>
<path d="M5440 541 c0 -6 4 -13 10 -16 6 -3 7 1 4 9 -7 18 -14 21 -14 7z"/>
</g>
</svg>
