<?xml version="1.0" standalone="no"?>
<!DOCTYPE svg PUBLIC "-//W3C//DTD SVG 20010904//EN"
 "http://www.w3.org/TR/2001/REC-SVG-20010904/DTD/svg10.dtd">
<svg version="1.0" xmlns="http://www.w3.org/2000/svg"
 width="240.000000pt" height="318.000000pt" viewBox="0 0 240.000000 318.000000"
 preserveAspectRatio="xMidYMid meet">

<g transform="translate(0.000000,318.000000) scale(0.100000,-0.100000)"
fill="#000000" stroke="none">
<path d="M1065 2720 c-113 -46 -209 -152 -235 -261 -29 -119 -2 -224 136 -531
l52 -118 -83 0 c-87 0 -119 -6 -109 -21 7 -12 771 -12 778 0 10 15 -22 21
-119 21 l-92 0 67 153 c112 251 132 317 128 417 -2 72 -8 96 -35 151 -39 79
-102 140 -181 177 -78 37 -231 42 -307 12z m223 -237 c49 -37 67 -71 67 -128
0 -57 -18 -91 -66 -128 -81 -60 -208 -5 -235 101 -16 59 28 140 91 168 39 18
110 12 143 -13z"/>
<path d="M1733 1793 c9 -2 23 -2 30 0 6 3 -1 5 -18 5 -16 0 -22 -2 -12 -5z"/>
<path d="M600 1723 c0 -18 39 -31 76 -26 72 9 125 -34 155 -127 7 -19 17 -38
23 -42 6 -4 -16 -8 -49 -9 -47 -1 -54 -3 -30 -8 73 -18 89 -33 101 -93 6 -31
11 -111 10 -178 l-1 -121 57 6 57 7 36 -72 c20 -40 34 -74 31 -77 -2 -2 -14 1
-26 7 -18 10 -24 8 -35 -7 -27 -36 -65 -120 -70 -154 -5 -32 -4 -31 11 9 l16
42 84 1 c46 1 89 3 94 4 6 1 19 3 30 4 18 1 20 8 20 91 0 118 15 168 57 188
l32 15 -35 51 c-19 28 -34 56 -34 62 0 7 14 24 31 38 32 28 75 33 112 15 21
-10 21 -10 3 5 -11 9 -23 16 -28 16 -4 0 -8 13 -8 28 0 43 72 79 194 96 53 7
99 16 103 20 4 4 -49 4 -118 1 l-124 -6 38 34 c21 20 71 52 110 73 40 20 89
52 110 71 34 30 35 33 15 34 -107 5 -1048 6 -1048 2z m640 -373 c0 -5 -4 -10
-8 -10 -5 0 -37 -48 -72 -107 -35 -60 -65 -110 -67 -112 -4 -5 -143 61 -149
71 -5 8 60 120 80 137 8 7 27 16 43 21 40 12 173 12 173 0z"/>
<path d="M1340 1110 c6 -11 16 -20 23 -20 7 0 6 -4 -3 -10 -24 -16 -2 -11 32
6 30 16 31 17 13 30 -10 8 -32 14 -47 14 -26 0 -28 -2 -18 -20z"/>
<path d="M1402 968 c13 -19 12 -24 -10 -47 -19 -21 -25 -23 -32 -11 -8 13 -10
12 -10 -2 0 -15 9 -18 55 -18 30 0 55 2 55 4 0 9 -61 96 -67 96 -3 0 1 -10 9
-22z"/>
<path d="M1193 805 c0 -44 2 -61 4 -37 2 23 2 59 0 80 -2 20 -4 1 -4 -43z"/>
<path d="M904 759 c12 -151 19 -522 8 -515 -5 3 -13 36 -18 73 l-8 68 -9 -60
c-10 -64 -18 -75 -55 -75 -43 0 -13 -18 70 -41 76 -22 101 -24 313 -24 192 0
242 3 300 19 93 24 111 35 60 36 -23 0 -46 -5 -52 -11 -12 -12 -43 24 -43 51
0 9 -4 20 -9 26 -5 5 -14 26 -19 47 -9 32 -8 37 6 37 15 0 15 2 2 10 -8 5 -10
10 -4 10 12 0 -9 93 -26 115 -4 6 -10 21 -13 35 -4 17 -13 25 -29 26 -20 1
-28 -8 -48 -57 -14 -32 -31 -59 -37 -59 -7 0 -13 -4 -13 -10 0 -16 -29 -11
-50 8 -15 14 -24 47 -37 134 l-16 116 -94 7 c-72 5 -99 11 -112 25 -9 10 -29
33 -45 51 l-29 32 7 -74z m369 -356 c-7 -2 -21 -2 -30 0 -10 3 -4 5 12 5 17 0
24 -2 18 -5z m35 -30 c2 -7 -3 -13 -12 -13 -9 0 -16 -4 -16 -10 0 -5 -7 -10
-15 -10 -20 0 -55 31 -49 42 9 13 87 5 92 -9z"/>
<path d="M880 462 c0 -11 -3 -27 -6 -36 -4 -10 -1 -16 10 -16 12 0 14 7 9 33
-7 39 -13 48 -13 19z"/>
<path d="M878 393 c7 -3 16 -2 19 1 4 3 -2 6 -13 5 -11 0 -14 -3 -6 -6z"/>
</g>
</svg>
